<svg class="xs:w-[350px] lg:w-[500px] container w-[275px]" width="662" height="auto" viewBox="0 0 662 105" fill="none" xmlns="http://www.w3.org/2000/svg" style="">
                <g filter="url(#filter0_i_0_1)">
                <path d="M93.072 18.808C101.947 18.808 108.987 21.496 114.192 26.872C119.483 32.248 122.128 39.7147 122.128 49.272V91H100.368V52.216C100.368 47.608 99.1307 44.0667 96.656 41.592C94.2667 39.032 90.9387 37.752 86.672 37.752C82.4054 37.752 79.0347 39.032 76.56 41.592C74.1707 44.0667 72.976 47.608 72.976 52.216V91H51.216V52.216C51.216 47.608 49.9787 44.0667 47.504 41.592C45.1147 39.032 41.7867 37.752 37.52 37.752C33.2534 37.752 29.8827 39.032 27.408 41.592C25.0187 44.0667 23.824 47.608 23.824 52.216V91H1.93604V19.576H23.824V28.536C26.0427 25.5493 28.944 23.2027 32.528 21.496C36.112 19.704 40.1654 18.808 44.688 18.808C50.064 18.808 54.8427 19.96 59.024 22.264C63.2907 24.568 66.6187 27.8533 69.008 32.12C71.4827 28.1947 74.8534 24.9947 79.12 22.52C83.3867 20.0453 88.0374 18.808 93.072 18.808Z" fill="#2f2e41" class="QZTxsnNS_0"></path>
                <path d="M204.764 54.136C204.764 56.184 204.636 58.3173 204.38 60.536H154.844C155.185 64.9733 156.593 68.3867 159.068 70.776C161.628 73.08 164.743 74.232 168.412 74.232C173.873 74.232 177.671 71.928 179.804 67.32H203.1C201.905 72.0133 199.729 76.2373 196.572 79.992C193.5 83.7467 189.617 86.6907 184.924 88.824C180.231 90.9573 174.983 92.024 169.18 92.024C162.183 92.024 155.953 90.5307 150.492 87.544C145.031 84.5573 140.764 80.2907 137.692 74.744C134.62 69.1973 133.084 62.712 133.084 55.288C133.084 47.864 134.577 41.3787 137.564 35.832C140.636 30.2853 144.903 26.0187 150.364 23.032C155.825 20.0453 162.097 18.552 169.18 18.552C176.092 18.552 182.236 20.0027 187.612 22.904C192.988 25.8053 197.169 29.944 200.156 35.32C203.228 40.696 204.764 46.968 204.764 54.136ZM182.364 48.376C182.364 44.6213 181.084 41.6347 178.524 39.416C175.964 37.1973 172.764 36.088 168.924 36.088C165.255 36.088 162.14 37.1547 159.58 39.288C157.105 41.4213 155.569 44.4507 154.972 48.376H182.364Z" fill="#2f2e41" class="QZTxsnNS_1"></path>
                <path d="M256.119 72.44V91H244.983C237.047 91 230.86 89.08 226.423 85.24C221.986 81.3147 219.767 74.9573 219.767 66.168V37.752H211.063V19.576H219.767V2.168H241.655V19.576H255.991V37.752H241.655V66.424C241.655 68.5573 242.167 70.0933 243.191 71.032C244.215 71.9707 245.922 72.44 248.311 72.44H256.119Z" fill="#2f2e41" class="QZTxsnNS_2"></path>
                <path d="M263.959 55.16C263.959 47.8213 265.324 41.3787 268.055 35.832C270.871 30.2853 274.668 26.0187 279.447 23.032C284.226 20.0453 289.559 18.552 295.447 18.552C300.482 18.552 304.876 19.576 308.631 21.624C312.471 23.672 315.415 26.36 317.463 29.688V19.576H339.351V91H317.463V80.888C315.33 84.216 312.343 86.904 308.503 88.952C304.748 91 300.354 92.024 295.319 92.024C289.516 92.024 284.226 90.5307 279.447 87.544C274.668 84.472 270.871 80.1627 268.055 74.616C265.324 68.984 263.959 62.4987 263.959 55.16ZM317.463 55.288C317.463 49.8267 315.927 45.5173 312.855 42.36C309.868 39.2027 306.199 37.624 301.847 37.624C297.495 37.624 293.783 39.2027 290.711 42.36C287.724 45.432 286.231 49.6987 286.231 55.16C286.231 60.6213 287.724 64.9733 290.711 68.216C293.783 71.3733 297.495 72.952 301.847 72.952C306.199 72.952 309.868 71.3733 312.855 68.216C315.927 65.0587 317.463 60.7493 317.463 55.288Z" fill="#2f2e41" class="QZTxsnNS_3"></path>
                </g>
                <path d="M122.128 91.75H122.878V91V49.272C122.878 39.5743 120.19 31.8992 114.729 26.3482C109.356 20.8008 102.108 18.058 93.072 18.058C87.9081 18.058 83.1272 19.3288 78.7438 21.8712C74.7513 24.1869 71.5141 27.1311 69.0444 30.7041C66.6413 26.8214 63.4182 23.7851 59.3833 21.6056C55.0783 19.2342 50.1732 18.058 44.688 18.058C40.0667 18.058 35.8984 18.9737 32.1991 20.8219C29.1996 22.2512 26.6549 24.1221 24.574 26.4357V19.576V18.826H23.824H1.93604H1.18604V19.576V91V91.75H1.93604H23.824H24.574V91V52.216C24.574 47.7349 25.7338 44.406 27.9473 42.1133C30.2531 39.728 33.4133 38.502 37.52 38.502C41.6277 38.502 44.7385 39.7281 46.9557 42.1037L46.9646 42.1132L46.9737 42.1223C49.2674 44.416 50.466 47.7415 50.466 52.216V91V91.75H51.216H72.976H73.726V91V52.216C73.726 47.7346 74.8859 44.4057 77.0996 42.1129C79.4053 39.7279 82.5655 38.502 86.672 38.502C90.7797 38.502 93.8905 39.7281 96.1077 42.1037L96.1166 42.1132L96.1257 42.1223C98.4194 44.416 99.618 47.7415 99.618 52.216V91V91.75H100.368H122.128ZM204.38 61.286H205.048L205.125 60.622C205.384 58.3773 205.514 56.2152 205.514 54.136C205.514 46.8601 203.954 40.4572 200.81 34.9521C197.754 29.4536 193.47 25.2131 187.968 22.244C182.469 19.2762 176.2 17.802 169.18 17.802C161.989 17.802 155.59 19.3191 150.004 22.374C144.416 25.4301 140.047 29.8001 136.908 35.4686L136.904 35.4764C133.848 41.1504 132.334 47.762 132.334 55.288C132.334 62.8173 133.893 69.4319 137.036 75.1074C140.175 80.7759 144.544 85.1459 150.132 88.202C155.717 91.2562 162.073 92.774 169.18 92.774C175.076 92.774 180.432 91.6897 185.234 89.5068C190.024 87.3295 194.001 84.3181 197.15 80.4703C200.377 76.6315 202.604 72.3075 203.827 67.505L204.065 66.57H203.1H179.804H179.325L179.123 67.0049C178.11 69.1936 176.721 70.7988 174.967 71.8628C173.21 72.9289 171.037 73.482 168.412 73.482C164.92 73.482 161.99 72.393 159.58 70.2274C157.424 68.1413 156.099 65.1871 155.667 61.286H204.38ZM256.869 72.44V71.69H256.119H248.311C245.985 71.69 244.513 71.2265 243.698 70.4791C242.895 69.7436 242.405 68.4589 242.405 66.424V38.502H255.991H256.741V37.752V19.576V18.826H255.991H242.405V2.168V1.418H241.655H219.767H219.017V2.168V18.826H211.063H210.313V19.576V37.752V38.502H211.063H219.017V66.168C219.017 75.067 221.263 81.6767 225.926 85.8018L225.932 85.8071C230.548 89.8011 236.931 91.75 244.983 91.75H256.119H256.869V91V72.44ZM267.386 35.4925L267.382 35.5007C264.592 41.168 263.209 47.7278 263.209 55.16C263.209 62.5926 264.592 69.193 267.38 74.9433L267.386 74.9555C270.257 80.6093 274.14 85.0241 279.041 88.1749L279.05 88.18C283.951 91.2435 289.38 92.774 295.319 92.774C300.456 92.774 304.977 91.729 308.859 89.6122C312.036 87.9171 314.659 85.7867 316.713 83.2183V91V91.75H317.463H339.351H340.101V91V19.576V18.826H339.351H317.463H316.713V19.576V27.3002C314.719 24.7565 312.139 22.6455 308.987 20.9639C305.105 18.8471 300.584 17.802 295.447 17.802C289.425 17.802 283.953 19.3314 279.05 22.396C274.143 25.4623 270.257 29.8372 267.386 35.4925ZM312.31 42.8755L312.318 42.883C315.222 45.8685 316.713 49.9726 316.713 55.288C316.713 60.6034 315.222 64.7075 312.317 67.6929L312.31 67.7006C309.465 70.708 305.993 72.202 301.847 72.202C297.704 72.202 294.187 70.7097 291.256 67.7007C288.43 64.6283 286.981 60.4759 286.981 55.16C286.981 49.8379 288.433 45.7792 291.249 42.8828C294.182 39.8687 297.7 38.374 301.847 38.374C305.993 38.374 309.465 39.868 312.31 42.8755ZM178.033 39.9828C180.24 41.8957 181.436 44.4211 181.596 47.626H155.863C156.522 44.2668 157.935 41.6982 160.065 39.8601C162.476 37.8533 165.414 36.838 168.924 36.838C172.609 36.838 175.627 37.8981 178.033 39.9828Z" stroke="#2f2e41" stroke-width="1.5" class="QZTxsnNS_4"></path>
                <g filter="url(#filter1_d_0_1)">
                <path d="M348 48.08C348 39.2053 349.92 31.312 353.76 24.4C357.6 17.4027 362.933 11.984 369.76 8.144C376.672 4.21866 384.48 2.256 393.184 2.256C403.851 2.256 412.981 5.072 420.576 10.704C428.171 16.336 433.248 24.016 435.808 33.744H411.744C409.952 29.9893 407.392 27.1307 404.064 25.168C400.821 23.2053 397.109 22.224 392.928 22.224C386.187 22.224 380.725 24.5707 376.544 29.264C372.363 33.9573 370.272 40.2293 370.272 48.08C370.272 55.9307 372.363 62.2027 376.544 66.896C380.725 71.5893 386.187 73.936 392.928 73.936C397.109 73.936 400.821 72.9547 404.064 70.992C407.392 69.0293 409.952 66.1707 411.744 62.416H435.808C433.248 72.144 428.171 79.824 420.576 85.456C412.981 91.0027 403.851 93.776 393.184 93.776C384.48 93.776 376.672 91.856 369.76 88.016C362.933 84.0907 357.6 78.672 353.76 71.76C349.92 64.848 348 56.9547 348 48.08Z" fill="white" class="QZTxsnNS_5"></path>
                <path d="M550.972 3.28V93.136H529.084V39.248L508.988 93.136H491.324L471.1 39.12V93.136H449.212V3.28H475.068L500.284 65.488L525.244 3.28H550.972Z" fill="white" class="QZTxsnNS_6"></path>
                <path d="M609.208 94.032C600.76 94.032 592.995 92.0693 585.912 88.144C578.915 84.2187 573.325 78.7573 569.144 71.76C565.048 64.6773 563 56.7413 563 47.952C563 39.1627 565.048 31.2693 569.144 24.272C573.325 17.2747 578.915 11.8133 585.912 7.888C592.995 3.96267 600.76 2 609.208 2C617.656 2 625.379 3.96267 632.376 7.888C639.459 11.8133 645.005 17.2747 649.016 24.272C653.112 31.2693 655.16 39.1627 655.16 47.952C655.16 56.7413 653.112 64.6773 649.016 71.76C644.92 78.7573 639.373 84.2187 632.376 88.144C625.379 92.0693 617.656 94.032 609.208 94.032ZM609.208 74.064C616.376 74.064 622.093 71.6747 626.36 66.896C630.712 62.1173 632.888 55.8027 632.888 47.952C632.888 40.016 630.712 33.7013 626.36 29.008C622.093 24.2293 616.376 21.84 609.208 21.84C601.955 21.84 596.152 24.1867 591.8 28.88C587.533 33.5733 585.4 39.9307 585.4 47.952C585.4 55.888 587.533 62.2453 591.8 67.024C596.152 71.7173 601.955 74.064 609.208 74.064Z" fill="white" class="QZTxsnNS_7"></path>
                <path d="M393.184 1.256C384.325 1.256 376.344 3.25529 369.268 7.27338C362.277 11.2063 356.812 16.7606 352.885 23.9167C348.953 30.9942 347 39.0575 347 48.08C347 57.1034 348.954 65.1676 352.886 72.2456C356.814 79.3158 362.277 84.8666 369.262 88.8829L369.268 88.8866L369.274 88.8902C376.35 92.8208 384.328 94.776 393.184 94.776C404.033 94.776 413.377 91.9517 421.166 86.2636L421.172 86.2592C428.961 80.4828 434.161 72.6032 436.775 62.6705L437.105 61.416H435.808H411.744H411.113L410.842 61.9853C409.128 65.5748 406.699 68.2769 403.556 70.1306L403.556 70.1306L403.546 70.1365C400.476 71.9951 396.946 72.936 392.928 72.936C386.449 72.936 381.267 70.6943 377.291 66.2308C373.31 61.763 371.272 55.7488 371.272 48.08C371.272 40.4112 373.31 34.397 377.291 29.9292C381.267 25.4657 386.449 23.224 392.928 23.224C396.946 23.224 400.476 24.1649 403.546 26.0235L403.546 26.0236L403.556 26.0294C406.699 27.8831 409.128 30.5852 410.842 34.1747L411.113 34.744H411.744H435.808H437.105L436.775 33.4895C434.161 23.5568 428.961 15.6772 421.172 9.90076C413.383 4.12485 404.036 1.256 393.184 1.256ZM551.972 3.28V2.28H550.972H525.244H524.568L524.316 2.90762L500.279 62.8143L475.995 2.90434L475.742 2.28H475.068H449.212H448.212V3.28V93.136V94.136H449.212H471.1H472.1V93.136V44.6428L490.387 93.4866L490.631 94.136H491.324H508.988H509.682L509.925 93.4854L528.084 44.7914V93.136V94.136H529.084H550.972H551.972V93.136V3.28ZM585.423 89.0162L585.427 89.0187C592.665 93.0298 600.598 95.032 609.208 95.032C617.818 95.032 625.71 93.0298 632.865 89.0161C640.019 85.0029 645.694 79.4142 649.879 72.2652L649.882 72.2606C654.072 65.0145 656.16 56.9036 656.16 47.952C656.16 39.0022 654.073 30.9333 649.881 23.771C645.78 16.6175 640.103 11.0279 632.864 7.01526C625.71 3.00201 617.818 1 609.208 1C600.598 1 592.665 3.00218 585.427 7.01333L585.423 7.01586C578.271 11.0281 572.555 16.6143 568.286 23.759L568.281 23.7668C564.088 30.9302 562 39.0005 562 47.952C562 56.9036 564.088 65.0145 568.278 72.2606L568.282 72.2668L568.286 72.273C572.555 79.4177 578.271 85.0039 585.423 89.0162ZM625.621 66.2226L625.614 66.23C621.561 70.7696 616.129 73.064 609.208 73.064C602.196 73.064 596.676 70.8076 592.54 66.3513C588.477 61.7975 586.4 55.6996 586.4 47.952C586.4 40.1129 588.481 34.0198 592.537 29.5557C596.673 25.0974 602.194 22.84 609.208 22.84C616.129 22.84 621.561 25.1344 625.614 29.674L625.62 29.681L625.627 29.6879C629.769 34.1546 631.888 40.2048 631.888 47.952C631.888 55.6098 629.771 61.6659 625.621 66.2226Z" stroke="" stroke-width="2" class="QZTxsnNS_8"></path>
                </g>
                <mask id="path-5-outside-1_0_1" maskUnits="userSpaceOnUse" x="346" y="0" width="312" height="97" fill="black">
                <path fill="white" width="312" height="97" d="M346 0 L658 0 L658 97 L346 97 Z" class="QZTxsnNS_9"></path>
                <path fill-rule="evenodd" clip-rule="evenodd" d="M435.534 63.416C432.895 72.6717 427.909 80.0184 420.576 85.456C412.981 91.0027 403.851 93.776 393.184 93.776C384.48 93.776 376.672 91.856 369.76 88.016C362.933 84.0907 357.6 78.672 353.76 71.76C349.92 64.848 348 56.9547 348 48.08C348 39.2053 349.92 31.312 353.76 24.4C357.6 17.4027 362.933 11.984 369.76 8.144C376.672 4.21866 384.48 2.256 393.184 2.256C403.851 2.256 412.981 5.072 420.576 10.704C427.909 16.1416 432.895 23.4883 435.534 32.744C435.628 33.0749 435.72 33.4082 435.808 33.744H411.744C409.952 29.9893 407.392 27.1307 404.064 25.168C400.821 23.2053 397.109 22.224 392.928 22.224C386.187 22.224 380.725 24.5707 376.544 29.264C372.363 33.9573 370.272 40.2293 370.272 48.08C370.272 55.9307 372.363 62.2027 376.544 66.896C380.725 71.5893 386.187 73.936 392.928 73.936C397.109 73.936 400.821 72.9547 404.064 70.992C407.392 69.0293 409.952 66.1707 411.744 62.416H435.808C435.72 62.7518 435.628 63.0851 435.534 63.416ZM369.268 7.2735C376.344 3.25533 384.324 1.256 393.184 1.256C404.036 1.256 413.383 4.12485 421.172 9.90076C428.961 15.6772 434.161 23.5568 436.775 33.4895L437.105 34.744H411.113L410.842 34.1747C409.128 30.5852 406.699 27.8831 403.556 26.0294L403.546 26.0236C400.475 24.165 396.946 23.224 392.928 23.224C386.449 23.224 381.267 25.4657 377.291 29.9292C373.31 34.397 371.272 40.4112 371.272 48.08C371.272 55.7488 373.31 61.763 377.291 66.2308C381.267 70.6943 386.449 72.936 392.928 72.936C396.946 72.936 400.476 71.9951 403.546 70.1365L403.556 70.1306C406.699 68.2769 409.128 65.5748 410.842 61.9853L411.113 61.416H437.105L436.775 62.6705C434.161 72.6032 428.961 80.4828 421.172 86.2592L421.166 86.2636C413.377 91.9517 404.033 94.776 393.184 94.776C384.328 94.776 376.35 92.8208 369.274 88.8902L369.268 88.8866L369.262 88.8829C362.277 84.8666 356.814 79.3158 352.886 72.2456C348.954 65.1676 347 57.1034 347 48.08C347 39.0575 348.953 30.9942 352.885 23.9167C356.812 16.7607 362.277 11.2064 369.268 7.2735ZM551.972 2.28V94.136H528.084V44.7914L509.682 94.136H490.631L472.1 44.6428V94.136H448.212V2.28H475.742L500.279 62.8143L524.568 2.28H551.972ZM500.284 65.488L475.068 3.28H449.212V93.136H471.1V39.12L491.324 93.136H508.988L529.084 39.248V93.136H550.972V3.28H525.244L500.284 65.488ZM585.427 89.0187L585.423 89.0162C578.271 85.0039 572.555 79.4177 568.286 72.273L568.282 72.2668L568.278 72.2606C564.088 65.0145 562 56.9036 562 47.952C562 39.0005 564.088 30.9302 568.281 23.7668L568.286 23.759C572.555 16.6143 578.271 11.0281 585.423 7.01586L585.427 7.01333C592.665 3.00218 600.598 1 609.208 1C617.818 1 625.71 3.00201 632.864 7.01526C640.103 11.0279 645.78 16.6175 649.881 23.771C654.073 30.9333 656.16 39.0022 656.16 47.952C656.16 56.9036 654.072 65.0145 649.882 72.2606L649.879 72.2652C645.694 79.4142 640.019 85.0029 632.865 89.0161C625.71 93.0298 617.818 95.032 609.208 95.032C600.598 95.032 592.665 93.0298 585.427 89.0187ZM649.016 24.272C645.005 17.2747 639.459 11.8133 632.376 7.888C625.379 3.96267 617.656 2 609.208 2C600.76 2 592.995 3.96267 585.912 7.888C578.915 11.8133 573.325 17.2747 569.144 24.272C565.048 31.2693 563 39.1627 563 47.952C563 56.7413 565.048 64.6773 569.144 71.76C573.325 78.7573 578.915 84.2187 585.912 88.144C592.995 92.0693 600.76 94.032 609.208 94.032C617.656 94.032 625.379 92.0693 632.376 88.144C639.373 84.2187 644.92 78.7573 649.016 71.76C653.112 64.6773 655.16 56.7413 655.16 47.952C655.16 39.1627 653.112 31.2693 649.016 24.272ZM625.614 66.23L625.621 66.2226C629.771 61.6659 631.888 55.6098 631.888 47.952C631.888 40.2048 629.769 34.1546 625.627 29.6879L625.62 29.681L625.614 29.674C621.561 25.1344 616.129 22.84 609.208 22.84C602.194 22.84 596.673 25.0974 592.537 29.5557C588.481 34.0198 586.4 40.1129 586.4 47.952C586.4 55.6996 588.477 61.7975 592.54 66.3513C596.676 70.8076 602.196 73.064 609.208 73.064C616.129 73.064 621.561 70.7696 625.614 66.23ZM591.8 67.024C587.533 62.2453 585.4 55.888 585.4 47.952C585.4 39.9307 587.533 33.5733 591.8 28.88C596.152 24.1867 601.955 21.84 609.208 21.84C616.376 21.84 622.093 24.2293 626.36 29.008C630.712 33.7013 632.888 40.016 632.888 47.952C632.888 55.8027 630.712 62.1173 626.36 66.896C622.093 71.6747 616.376 74.064 609.208 74.064C601.955 74.064 596.152 71.7173 591.8 67.024Z" class="QZTxsnNS_10"></path>
                </mask>
                <g filter="url(#filter2_i_0_1)">
                <path fill-rule="evenodd" clip-rule="evenodd" d="M435.534 63.416C432.895 72.6717 427.909 80.0184 420.576 85.456C412.981 91.0027 403.851 93.776 393.184 93.776C384.48 93.776 376.672 91.856 369.76 88.016C362.933 84.0907 357.6 78.672 353.76 71.76C349.92 64.848 348 56.9547 348 48.08C348 39.2053 349.92 31.312 353.76 24.4C357.6 17.4027 362.933 11.984 369.76 8.144C376.672 4.21866 384.48 2.256 393.184 2.256C403.851 2.256 412.981 5.072 420.576 10.704C427.909 16.1416 432.895 23.4883 435.534 32.744C435.628 33.0749 435.72 33.4082 435.808 33.744H411.744C409.952 29.9893 407.392 27.1307 404.064 25.168C400.821 23.2053 397.109 22.224 392.928 22.224C386.187 22.224 380.725 24.5707 376.544 29.264C372.363 33.9573 370.272 40.2293 370.272 48.08C370.272 55.9307 372.363 62.2027 376.544 66.896C380.725 71.5893 386.187 73.936 392.928 73.936C397.109 73.936 400.821 72.9547 404.064 70.992C407.392 69.0293 409.952 66.1707 411.744 62.416H435.808C435.72 62.7518 435.628 63.0851 435.534 63.416ZM369.268 7.2735C376.344 3.25533 384.324 1.256 393.184 1.256C404.036 1.256 413.383 4.12485 421.172 9.90076C428.961 15.6772 434.161 23.5568 436.775 33.4895L437.105 34.744H411.113L410.842 34.1747C409.128 30.5852 406.699 27.8831 403.556 26.0294L403.546 26.0236C400.475 24.165 396.946 23.224 392.928 23.224C386.449 23.224 381.267 25.4657 377.291 29.9292C373.31 34.397 371.272 40.4112 371.272 48.08C371.272 55.7488 373.31 61.763 377.291 66.2308C381.267 70.6943 386.449 72.936 392.928 72.936C396.946 72.936 400.476 71.9951 403.546 70.1365L403.556 70.1306C406.699 68.2769 409.128 65.5748 410.842 61.9853L411.113 61.416H437.105L436.775 62.6705C434.161 72.6032 428.961 80.4828 421.172 86.2592L421.166 86.2636C413.377 91.9517 404.033 94.776 393.184 94.776C384.328 94.776 376.35 92.8208 369.274 88.8902L369.268 88.8866L369.262 88.8829C362.277 84.8666 356.814 79.3158 352.886 72.2456C348.954 65.1676 347 57.1034 347 48.08C347 39.0575 348.953 30.9942 352.885 23.9167C356.812 16.7607 362.277 11.2064 369.268 7.2735ZM551.972 2.28V94.136H528.084V44.7914L509.682 94.136H490.631L472.1 44.6428V94.136H448.212V2.28H475.742L500.279 62.8143L524.568 2.28H551.972ZM500.284 65.488L475.068 3.28H449.212V93.136H471.1V39.12L491.324 93.136H508.988L529.084 39.248V93.136H550.972V3.28H525.244L500.284 65.488ZM585.427 89.0187L585.423 89.0162C578.271 85.0039 572.555 79.4177 568.286 72.273L568.282 72.2668L568.278 72.2606C564.088 65.0145 562 56.9036 562 47.952C562 39.0005 564.088 30.9302 568.281 23.7668L568.286 23.759C572.555 16.6143 578.271 11.0281 585.423 7.01586L585.427 7.01333C592.665 3.00218 600.598 1 609.208 1C617.818 1 625.71 3.00201 632.864 7.01526C640.103 11.0279 645.78 16.6175 649.881 23.771C654.073 30.9333 656.16 39.0022 656.16 47.952C656.16 56.9036 654.072 65.0145 649.882 72.2606L649.879 72.2652C645.694 79.4142 640.019 85.0029 632.865 89.0161C625.71 93.0298 617.818 95.032 609.208 95.032C600.598 95.032 592.665 93.0298 585.427 89.0187ZM649.016 24.272C645.005 17.2747 639.459 11.8133 632.376 7.888C625.379 3.96267 617.656 2 609.208 2C600.76 2 592.995 3.96267 585.912 7.888C578.915 11.8133 573.325 17.2747 569.144 24.272C565.048 31.2693 563 39.1627 563 47.952C563 56.7413 565.048 64.6773 569.144 71.76C573.325 78.7573 578.915 84.2187 585.912 88.144C592.995 92.0693 600.76 94.032 609.208 94.032C617.656 94.032 625.379 92.0693 632.376 88.144C639.373 84.2187 644.92 78.7573 649.016 71.76C653.112 64.6773 655.16 56.7413 655.16 47.952C655.16 39.1627 653.112 31.2693 649.016 24.272ZM625.614 66.23L625.621 66.2226C629.771 61.6659 631.888 55.6098 631.888 47.952C631.888 40.2048 629.769 34.1546 625.627 29.6879L625.62 29.681L625.614 29.674C621.561 25.1344 616.129 22.84 609.208 22.84C602.194 22.84 596.673 25.0974 592.537 29.5557C588.481 34.0198 586.4 40.1129 586.4 47.952C586.4 55.6996 588.477 61.7975 592.54 66.3513C596.676 70.8076 602.196 73.064 609.208 73.064C616.129 73.064 621.561 70.7696 625.614 66.23ZM591.8 67.024C587.533 62.2453 585.4 55.888 585.4 47.952C585.4 39.9307 587.533 33.5733 591.8 28.88C596.152 24.1867 601.955 21.84 609.208 21.84C616.376 21.84 622.093 24.2293 626.36 29.008C630.712 33.7013 632.888 40.016 632.888 47.952C632.888 55.8027 630.712 62.1173 626.36 66.896C622.093 71.6747 616.376 74.064 609.208 74.064C601.955 74.064 596.152 71.7173 591.8 67.024Z" fill="white" class="QZTxsnNS_11"></path>
                </g>
                <path fill-rule="evenodd" clip-rule="evenodd" d="M435.534 63.416C432.895 72.6717 427.909 80.0184 420.576 85.456C412.981 91.0027 403.851 93.776 393.184 93.776C384.48 93.776 376.672 91.856 369.76 88.016C362.933 84.0907 357.6 78.672 353.76 71.76C349.92 64.848 348 56.9547 348 48.08C348 39.2053 349.92 31.312 353.76 24.4C357.6 17.4027 362.933 11.984 369.76 8.144C376.672 4.21866 384.48 2.256 393.184 2.256C403.851 2.256 412.981 5.072 420.576 10.704C427.909 16.1416 432.895 23.4883 435.534 32.744C435.628 33.0749 435.72 33.4082 435.808 33.744H411.744C409.952 29.9893 407.392 27.1307 404.064 25.168C400.821 23.2053 397.109 22.224 392.928 22.224C386.187 22.224 380.725 24.5707 376.544 29.264C372.363 33.9573 370.272 40.2293 370.272 48.08C370.272 55.9307 372.363 62.2027 376.544 66.896C380.725 71.5893 386.187 73.936 392.928 73.936C397.109 73.936 400.821 72.9547 404.064 70.992C407.392 69.0293 409.952 66.1707 411.744 62.416H435.808C435.72 62.7518 435.628 63.0851 435.534 63.416ZM369.268 7.2735C376.344 3.25533 384.324 1.256 393.184 1.256C404.036 1.256 413.383 4.12485 421.172 9.90076C428.961 15.6772 434.161 23.5568 436.775 33.4895L437.105 34.744H411.113L410.842 34.1747C409.128 30.5852 406.699 27.8831 403.556 26.0294L403.546 26.0236C400.475 24.165 396.946 23.224 392.928 23.224C386.449 23.224 381.267 25.4657 377.291 29.9292C373.31 34.397 371.272 40.4112 371.272 48.08C371.272 55.7488 373.31 61.763 377.291 66.2308C381.267 70.6943 386.449 72.936 392.928 72.936C396.946 72.936 400.476 71.9951 403.546 70.1365L403.556 70.1306C406.699 68.2769 409.128 65.5748 410.842 61.9853L411.113 61.416H437.105L436.775 62.6705C434.161 72.6032 428.961 80.4828 421.172 86.2592L421.166 86.2636C413.377 91.9517 404.033 94.776 393.184 94.776C384.328 94.776 376.35 92.8208 369.274 88.8902L369.268 88.8866L369.262 88.8829C362.277 84.8666 356.814 79.3158 352.886 72.2456C348.954 65.1676 347 57.1034 347 48.08C347 39.0575 348.953 30.9942 352.885 23.9167C356.812 16.7607 362.277 11.2064 369.268 7.2735ZM551.972 2.28V94.136H528.084V44.7914L509.682 94.136H490.631L472.1 44.6428V94.136H448.212V2.28H475.742L500.279 62.8143L524.568 2.28H551.972ZM500.284 65.488L475.068 3.28H449.212V93.136H471.1V39.12L491.324 93.136H508.988L529.084 39.248V93.136H550.972V3.28H525.244L500.284 65.488ZM585.427 89.0187L585.423 89.0162C578.271 85.0039 572.555 79.4177 568.286 72.273L568.282 72.2668L568.278 72.2606C564.088 65.0145 562 56.9036 562 47.952C562 39.0005 564.088 30.9302 568.281 23.7668L568.286 23.759C572.555 16.6143 578.271 11.0281 585.423 7.01586L585.427 7.01333C592.665 3.00218 600.598 1 609.208 1C617.818 1 625.71 3.00201 632.864 7.01526C640.103 11.0279 645.78 16.6175 649.881 23.771C654.073 30.9333 656.16 39.0022 656.16 47.952C656.16 56.9036 654.072 65.0145 649.882 72.2606L649.879 72.2652C645.694 79.4142 640.019 85.0029 632.865 89.0161C625.71 93.0298 617.818 95.032 609.208 95.032C600.598 95.032 592.665 93.0298 585.427 89.0187ZM649.016 24.272C645.005 17.2747 639.459 11.8133 632.376 7.888C625.379 3.96267 617.656 2 609.208 2C600.76 2 592.995 3.96267 585.912 7.888C578.915 11.8133 573.325 17.2747 569.144 24.272C565.048 31.2693 563 39.1627 563 47.952C563 56.7413 565.048 64.6773 569.144 71.76C573.325 78.7573 578.915 84.2187 585.912 88.144C592.995 92.0693 600.76 94.032 609.208 94.032C617.656 94.032 625.379 92.0693 632.376 88.144C639.373 84.2187 644.92 78.7573 649.016 71.76C653.112 64.6773 655.16 56.7413 655.16 47.952C655.16 39.1627 653.112 31.2693 649.016 24.272ZM625.614 66.23L625.621 66.2226C629.771 61.6659 631.888 55.6098 631.888 47.952C631.888 40.2048 629.769 34.1546 625.627 29.6879L625.62 29.681L625.614 29.674C621.561 25.1344 616.129 22.84 609.208 22.84C602.194 22.84 596.673 25.0974 592.537 29.5557C588.481 34.0198 586.4 40.1129 586.4 47.952C586.4 55.6996 588.477 61.7975 592.54 66.3513C596.676 70.8076 602.196 73.064 609.208 73.064C616.129 73.064 621.561 70.7696 625.614 66.23ZM591.8 67.024C587.533 62.2453 585.4 55.888 585.4 47.952C585.4 39.9307 587.533 33.5733 591.8 28.88C596.152 24.1867 601.955 21.84 609.208 21.84C616.376 21.84 622.093 24.2293 626.36 29.008C630.712 33.7013 632.888 40.016 632.888 47.952C632.888 55.8027 630.712 62.1173 626.36 66.896C622.093 71.6747 616.376 74.064 609.208 74.064C601.955 74.064 596.152 71.7173 591.8 67.024Z" stroke="" stroke-width="1" mask="url(#path-5-outside-1_0_1)" class="QZTxsnNS_12"></path>
                <defs>
                <filter id="filter0_i_0_1" x="0.436035" y="0.667999" width="340.415" height="96.856" filterUnits="userSpaceOnUse" color-interpolation-filters="sRGB">
                <feFlood flood-opacity="0" result="BackgroundImageFix"></feFlood>
                <feBlend mode="normal" in="SourceGraphic" in2="BackgroundImageFix" result="shape"></feBlend>
                <feColorMatrix in="SourceAlpha" type="matrix" values="0 0 0 0 0 0 0 0 0 0 0 0 0 0 0 0 0 0 127 0" result="hardAlpha"></feColorMatrix>
                <feOffset dy="4"></feOffset>
                <feGaussianBlur stdDeviation="2"></feGaussianBlur>
                <feComposite in2="hardAlpha" operator="arithmetic" k2="-1" k3="1"></feComposite>
                <feColorMatrix type="matrix" values="0 0 0 0 0 0 0 0 0 0 0 0 0 0 0 0 0 0 0.25 0"></feColorMatrix>
                <feBlend mode="normal" in2="shape" result="effect1_innerShadow_0_1"></feBlend>
                </filter>
                <filter id="filter1_d_0_1" x="342" y="0" width="319.16" height="104.032" filterUnits="userSpaceOnUse" color-interpolation-filters="sRGB">
                <feFlood flood-opacity="0" result="BackgroundImageFix"></feFlood>
                <feColorMatrix in="SourceAlpha" type="matrix" values="0 0 0 0 0 0 0 0 0 0 0 0 0 0 0 0 0 0 127 0" result="hardAlpha"></feColorMatrix>
                <feOffset dy="4"></feOffset>
                <feGaussianBlur stdDeviation="2"></feGaussianBlur>
                <feComposite in2="hardAlpha" operator="out"></feComposite>
                <feColorMatrix type="matrix" values="0 0 0 0 0 0 0 0 0 0 0 0 0 0 0 0 0 0 0.25 0"></feColorMatrix>
                <feBlend mode="normal" in2="BackgroundImageFix" result="effect1_dropShadow_0_1"></feBlend>
                <feBlend mode="normal" in="SourceGraphic" in2="effect1_dropShadow_0_1" result="shape"></feBlend>
                </filter>
                <filter id="filter2_i_0_1" x="346" y="0" width="311.16" height="100.032" filterUnits="userSpaceOnUse" color-interpolation-filters="sRGB">
                <feFlood flood-opacity="0" result="BackgroundImageFix"></feFlood>
                <feBlend mode="normal" in="SourceGraphic" in2="BackgroundImageFix" result="shape"></feBlend>
                <feColorMatrix in="SourceAlpha" type="matrix" values="0 0 0 0 0 0 0 0 0 0 0 0 0 0 0 0 0 0 127 0" result="hardAlpha"></feColorMatrix>
                <feOffset dy="4"></feOffset>
                <feGaussianBlur stdDeviation="2"></feGaussianBlur>
                <feComposite in2="hardAlpha" operator="arithmetic" k2="-1" k3="1"></feComposite>
                <feColorMatrix type="matrix" values="0 0 0 0 0 0 0 0 0 0 0 0 0 0 0 0 0 0 0.25 0"></feColorMatrix>
                <feBlend mode="normal" in2="shape" result="effect1_innerShadow_0_1"></feBlend>
                </filter>
                </defs>
                <style data-made-with="vivus-instant">.QZTxsnNS_0{stroke-dasharray:585 587;stroke-dashoffset:586;animation:QZTxsnNS_draw 4000ms ease-in-out 0ms forwards;}.QZTxsnNS_1{stroke-dasharray:402 404;stroke-dashoffset:403;animation:QZTxsnNS_draw 4000ms ease-in-out 166ms forwards;}.QZTxsnNS_2{stroke-dasharray:285 287;stroke-dashoffset:286;animation:QZTxsnNS_draw 4000ms ease-in-out 333ms forwards;}.QZTxsnNS_3{stroke-dasharray:402 404;stroke-dashoffset:403;animation:QZTxsnNS_draw 4000ms ease-in-out 500ms forwards;}.QZTxsnNS_4{stroke-dasharray:1678 1680;stroke-dashoffset:1679;animation:QZTxsnNS_draw 4000ms ease-in-out 666ms forwards;}.QZTxsnNS_5{stroke-dasharray:432 434;stroke-dashoffset:433;animation:QZTxsnNS_draw 4000ms ease-in-out 833ms forwards;}.QZTxsnNS_6{stroke-dasharray:650 652;stroke-dashoffset:651;animation:QZTxsnNS_draw 4000ms ease-in-out 1000ms forwards;}.QZTxsnNS_7{stroke-dasharray:451 453;stroke-dashoffset:452;animation:QZTxsnNS_draw 4000ms ease-in-out 1166ms forwards;}.QZTxsnNS_8{stroke-dasharray:1530 1532;stroke-dashoffset:1531;animation:QZTxsnNS_draw 4000ms ease-in-out 1333ms forwards;}.QZTxsnNS_9{stroke-dasharray:818 820;stroke-dashoffset:819;animation:QZTxsnNS_draw 4000ms ease-in-out 1500ms forwards;}.QZTxsnNS_10{stroke-dasharray:3062 3064;stroke-dashoffset:3063;animation:QZTxsnNS_draw 4000ms ease-in-out 1666ms forwards;}.QZTxsnNS_11{stroke-dasharray:3062 3064;stroke-dashoffset:3063;animation:QZTxsnNS_draw 4000ms ease-in-out 1833ms forwards;}.QZTxsnNS_12{stroke-dasharray:3062 3064;stroke-dashoffset:3063;animation:QZTxsnNS_draw 4000ms ease-in-out 2000ms forwards;}@keyframes QZTxsnNS_draw{100%{stroke-dashoffset:0;}}@keyframes QZTxsnNS_fade{0%{stroke-opacity:1;}96.07843137254902%{stroke-opacity:1;}100%{stroke-opacity:0;}}</style></svg>