<svg width="479" height="384" viewBox="0 0 479 384" fill="none" xmlns="http://www.w3.org/2000/svg">
<path d="M190.976 178.611C186.123 183.183 179.83 184.386 176.92 181.298C174.011 178.209 175.586 171.999 180.439 167.427C182.564 165.425 184.964 164.069 187.236 163.436L208.043 144.32L216.806 154.275L195.364 172.064C194.597 174.294 193.101 176.609 190.976 178.611V178.611Z" fill="#FFB6B6"/>
<path d="M300.444 375.337L290.413 375.336L285.642 336.646L300.446 336.647L300.444 375.337Z" fill="#FFB6B6"/>
<path d="M266.078 375.109C265.765 375.635 265.601 377.333 265.601 377.945C265.601 379.825 267.125 381.349 269.005 381.349H300.069C301.351 381.349 302.391 380.309 302.391 379.027V377.733C302.391 377.733 303.928 373.846 300.764 369.056C300.764 369.056 296.832 372.807 290.956 366.931L289.223 363.792L276.681 372.965L269.729 373.821C268.209 374.008 266.86 373.792 266.078 375.109V375.109Z" fill="#2F2E41"/>
<path d="M370.813 369.639L360.951 371.47L349.195 334.302L363.751 331.6L370.813 369.639Z" fill="#FFB6B6"/>
<path d="M336.984 375.691C336.773 376.265 336.921 377.964 337.032 378.566C337.376 380.414 339.153 381.635 341.001 381.291L371.542 375.619C372.804 375.385 373.636 374.173 373.402 372.911L373.166 371.64C373.166 371.64 373.967 367.538 369.981 363.405C369.981 363.405 366.8 367.811 359.951 363.108L357.674 360.338L347.018 371.646L340.339 373.757C338.878 374.219 337.512 374.253 336.984 375.691V375.691Z" fill="#2F2E41"/>
<path d="M346.234 184.131L370.941 349.554L347.941 352.554L307.941 221.554L302.941 356.554H281.504C281.504 356.554 262.989 207.554 268.465 189.554C273.941 171.554 346.234 184.131 346.234 184.131V184.131Z" fill="#2F2E41"/>
<path d="M292.941 51.5536H316.941L320.441 60.0536C320.441 60.0536 334.441 68.0536 334.441 71.0536C334.441 74.0536 342.941 149.554 342.941 149.554L347.441 191.054C347.441 191.054 294.941 217.554 268.941 190.554L273.941 144.554C273.941 144.554 269.941 72.5536 271.941 69.5536C273.941 66.5536 288.941 59.5536 288.941 59.5536L292.941 51.5536V51.5536Z" fill="#00FFFF"/>
<path d="M285.435 64.4536H285.435C285.435 64.4536 292.749 75.5067 290.441 80.0536C288.134 84.6005 252.117 128.237 252.117 128.237L208.662 164.023L195.925 152.72L236.856 113.673L263.303 74.6702C267.512 66.6418 276.595 62.4489 285.435 64.4536V64.4536Z" fill="#00FFFF"/>
<path d="M367.96 208.119C369.005 214.705 366.454 220.582 362.264 221.247C358.073 221.912 353.829 217.112 352.784 210.527C352.326 207.644 352.558 204.897 353.315 202.664L349.238 174.703L362.4 173.07L365.022 200.806C366.432 202.696 367.503 205.237 367.96 208.119V208.119Z" fill="#FFB6B6"/>
<path d="M316.77 65.5471C316.77 65.5471 337.465 60.9153 341.225 72.3919C344.984 83.8685 367.577 192.728 367.577 192.728L350.366 194.634L337.441 120.054L316.77 65.5471H316.77Z" fill="#00FFFF"/>
<path d="M305.764 45.9869C317.16 45.9869 326.398 36.7487 326.398 25.3528C326.398 13.9569 317.16 4.71867 305.764 4.71867C294.368 4.71867 285.13 13.9569 285.13 25.3528C285.13 36.7487 294.368 45.9869 305.764 45.9869Z" fill="#FFB6B6"/>
<path d="M317.837 42.8731C316.514 42.9374 314.767 42.6854 314.546 41.3795C314.389 40.4582 315.166 39.6641 315.897 39.0823C316.917 38.2712 317.992 37.515 318.868 36.5507C319.745 35.5864 320.419 34.3669 320.436 33.0642C320.452 31.7614 319.676 30.4022 318.43 30.0231C317.184 29.6439 315.629 30.5707 315.61 31.8734C314.409 30.0485 314.249 27.7492 314.186 25.5652C314.149 24.2872 314.133 23.0085 314.137 21.73C314.143 19.9832 314.187 18.2369 314.231 16.4908C313.372 16.4455 306.441 19.0536 305.441 19.0536C304.581 19.0536 297.672 17.682 298.131 15.7137C297.996 16.9717 291.405 19.2377 291.27 18.5793C291.136 17.9208 290.644 17.2258 289.973 17.2651C289.266 17.3066 288.882 18.0905 288.644 18.7579C288.113 20.248 286.823 22.8233 285.441 22.0536C274.982 16.2285 283.415 14.4142 284.654 12.0453C286.177 9.13326 287.802 6.10364 290.513 4.2459C293.224 2.38816 295.363 0.169974 297.499 2.66795C302.855 -1.23669 308.17 -0.294826 314.413 1.93173C320.657 4.15829 325.651 9.60612 327.328 16.0191C328.097 18.9586 330.156 20.2484 328.622 22.8709C330.313 25.139 329.397 23.8557 329.731 26.6651C329.995 28.8817 329.774 31.2213 328.675 33.1641C327.501 35.2396 325.422 36.6836 323.2 37.549C320.978 38.4144 320.594 42.7609 318.234 43.1012" fill="#2F2E41"/>
<path d="M420.346 365.601C422.412 365.731 423.553 363.164 421.99 361.668L421.835 361.05C421.855 361 421.876 360.951 421.897 360.902C423.986 355.92 431.067 355.954 433.138 360.943C434.977 365.372 437.317 369.807 437.894 374.489C438.152 376.556 438.036 378.662 437.577 380.69C441.885 371.279 444.153 361.003 444.153 350.669C444.153 348.072 444.01 345.476 443.72 342.886C443.481 340.767 443.151 338.662 442.725 336.576C440.419 325.298 435.427 314.557 428.225 305.586C424.763 303.694 421.876 300.735 420.132 297.19C419.505 295.911 419.015 294.535 418.782 293.133C419.176 293.185 420.268 287.185 419.97 286.817C420.52 285.983 421.502 285.569 422.102 284.756C425.084 280.713 429.193 281.419 431.338 286.914C435.92 289.226 435.965 293.062 433.153 296.75C431.364 299.097 431.119 302.273 429.549 304.785C429.711 304.992 429.878 305.192 430.04 305.399C433.001 309.197 435.562 313.279 437.721 317.567C437.111 312.801 438.012 307.059 439.547 303.358C441.296 299.14 444.572 295.589 447.458 291.943C450.924 287.564 458.031 289.475 458.642 295.026C458.648 295.08 458.653 295.134 458.659 295.187C458.231 295.429 457.811 295.686 457.401 295.957C455.061 297.504 455.87 301.131 458.642 301.559L458.704 301.569C458.549 303.112 458.285 304.643 457.897 306.148C461.599 320.464 453.607 325.678 442.196 325.912C441.944 326.041 441.698 326.17 441.446 326.293C442.602 329.548 443.526 332.888 444.211 336.272C444.824 339.263 445.251 342.285 445.49 345.321C445.787 349.151 445.761 353.001 445.438 356.824L445.457 356.689C446.277 352.477 448.564 348.544 451.884 345.818C456.829 341.756 463.817 340.26 469.152 336.994C471.72 335.422 475.012 337.454 474.563 340.431L474.541 340.574C473.747 340.897 472.972 341.271 472.223 341.691C471.794 341.933 471.374 342.19 470.964 342.461C468.625 344.008 469.433 347.635 472.205 348.063L472.268 348.072C472.313 348.079 472.352 348.085 472.397 348.092C471.034 351.328 469.135 354.331 466.759 356.921C464.444 369.418 454.503 370.604 443.868 366.965H443.862C442.699 372.028 441.001 376.976 438.817 381.691H420.797C420.733 381.491 420.675 381.284 420.616 381.084C422.283 381.187 423.962 381.09 425.603 380.787C424.266 379.146 422.929 377.493 421.592 375.852C421.559 375.82 421.534 375.787 421.508 375.755C420.83 374.916 420.145 374.082 419.467 373.243L419.466 373.242C419.424 370.664 419.733 368.095 420.345 365.602L420.346 365.602V365.601Z" fill="#F2F2F2"/>
<path d="M0 382.047C0 382.707 0.53003 383.237 1.19006 383.237H477.48C478.14 383.237 478.67 382.707 478.67 382.047C478.67 381.387 478.14 380.857 477.48 380.857H1.19006C0.53003 380.857 0 381.387 0 382.047Z" fill="#CCCCCC"/>
<path d="M100 254C130.376 254 155 229.376 155 199C155 168.624 130.376 144 100 144C69.6243 144 45 168.624 45 199C45 229.376 69.6243 254 100 254Z" fill="#00FFFF"/>
<path d="M89.4182 229.815C113.948 229.815 127.366 209.491 127.366 191.896C127.366 191.327 127.366 190.75 127.342 190.182C129.954 188.29 132.209 185.949 134 183.267C131.56 184.343 128.974 185.052 126.326 185.372C129.115 183.704 131.204 181.081 132.204 177.99C129.584 179.542 126.716 180.632 123.726 181.212C118.679 175.837 110.231 175.571 104.856 180.618C101.386 183.877 99.9132 188.738 100.992 193.375C90.2685 192.837 80.2767 187.774 73.5013 179.444C69.9715 185.541 71.7811 193.33 77.6369 197.246C75.5225 197.174 73.4546 196.607 71.6 195.589V195.772C71.6075 202.116 76.0761 207.579 82.2925 208.845C81.1479 209.16 79.9656 209.317 78.7784 209.312C77.9415 209.314 77.1062 209.237 76.284 209.08C78.0313 214.511 83.0395 218.229 88.7437 218.331C84.0172 222.043 78.1788 224.056 72.1687 224.047C71.1097 224.051 70.0515 223.99 69 223.864C75.0999 227.753 82.184 229.818 89.4181 229.815H89.4182Z" fill="white"/>
</svg>
