<?xml version="1.0" encoding="utf-8"?>
<!-- Generator: Adobe Illustrator 25.4.1, SVG Export Plug-In . SVG Version: 6.00 Build 0)  -->
<svg version="1.1" id="Layer_1" xmlns="http://www.w3.org/2000/svg" xmlns:xlink="http://www.w3.org/1999/xlink" x="0px" y="0px"
	 viewBox="0 0 208.2 210.4" style="enable-background:new 0 0 208.2 210.4;" xml:space="preserve">
<style type="text/css">
	.st0{fill:#4A5B63;}
	.st1{fill:url(#SVGID_1_);}
	.st2{fill:url(#SVGID_00000003785614484627895900000017961262191548886403_);}
	.st3{fill:url(#SVGID_00000106106040750272867970000002824664755317477522_);}
	.st4{fill:url(#SVGID_00000150794144572061651810000000007693216205361819_);}
	.st5{fill:url(#SVGID_00000132048942353297124740000007588063583402142384_);}
	.st6{fill:url(#SVGID_00000150096644693715752840000007694479566838010302_);}
	.st7{fill:url(#SVGID_00000145045379384117515520000016045999634766693047_);}
</style>
<g>
	<path class="st0" d="M49.9,131.1c10.2,0,15.9,5.8,15.9,17v35.4h-7.3v-33.9c0-7.9-3.8-12-10.1-12c-6.4,0-10.5,4.4-11.8,8.6v37.3
		h-7.4v-33.4c0-8.1-3.6-12.6-10.2-12.6c-6.4,0-10.6,4.7-11.6,9.2v36.8H0v-51.4h5.7l1.5,5.5h0.4c1.4-2.2,5.3-6.5,13.3-6.5
		c7.7,0,11.7,3.5,13.6,8.1h0.4C36.8,135.1,41.9,131.1,49.9,131.1z"/>
	<path class="st0" d="M117.2,179.6c-3.4,2.6-8.8,4.6-16.2,4.6c-14.6,0-22.6-7.5-22.6-26.6c0-18.6,10.4-26.3,21.8-26.3
		c12.2,0,18.7,7.9,18.7,20.1c0,2.6-0.2,5.6-0.6,8.9H85.7c0.7,12.7,6,17.5,16.3,17.5c5.1,0,9.7-2,11.9-3.9L117.2,179.6z M85.8,154.3
		h25.8c0.1-1.3,0.1-2.5,0.1-3.1c0-8.7-3.8-13.5-12.1-13.5C92.9,137.6,86.5,141.9,85.8,154.3z"/>
	<path class="st0" d="M134.1,169.9v-31.7h-7.7v-4.7l7.7-1.4l2.3-13.3h5v13.5h14.2v6h-14.2v31.4c0,5.8,2.9,8.1,7.5,8.1
		c4.2,0,6.5-0.9,7.8-1.8l2.1,5.9c-2,1.1-5.4,2.4-11.5,2.4C138.7,184,134.1,179.6,134.1,169.9z"/>
	<path class="st0" d="M201.8,147v23.2c0,4.6,1.4,7.7,5,7.7h1.3v5.4c-0.7,0.4-1.7,0.6-2.6,0.6c-5.1,0-8.1-2.7-9.4-6.2h-0.4
		c-2.5,2.8-6.6,6.9-15.3,6.9c-9.5,0-14.8-6.7-14.8-13.7c0-11.3,11.1-16.9,29.4-16.6v-5.6c0-8.4-4.1-10.9-10.9-10.9
		c-6.9,0-10.2,3.8-11.7,6.2l-5.4-4.3c1.8-2.5,6.6-8.4,17.3-8.4C195.3,131.4,201.8,136.2,201.8,147z M195,160
		c-12.4-0.5-22.1,2.6-22.1,10.3c0,4.5,3.3,8.2,9.3,8.2c5.9,0,10.5-3.5,12.8-7V160z"/>
</g>
<g>
	<path class="st0" d="M162.8,208.4c-1.4-1.3-2-3-2-5.1s0.7-3.8,2.1-5.1c1.4-1.4,3.1-2,5-2c2.5,0,4.7,1.1,5.9,2.8l-1.8,1.8
		c-1.1-1.3-2.4-2-3.9-2c-1.2,0-2.3,0.4-3.1,1.3c-0.8,0.8-1.3,1.9-1.3,3.2s0.4,2.3,1.2,3.1s1.9,1.2,3.1,1.2c1.6,0,2.9-0.7,4-2
		l1.9,1.7c-1.3,1.7-3.5,2.9-6,2.9C165.9,210.3,164.2,209.7,162.8,208.4z"/>
	<path class="st0" d="M176.5,210.1v-13.7h1.8l5.4,7.8l5.3-7.8h1.9v13.7h-2.7v-7.8l-4,5.7h-0.9l-4-5.7v7.8H176.5z"/>
	<path class="st0" d="M195.9,208.3c-1.4-1.4-2-3-2-5s0.7-3.7,2.1-5.1c1.4-1.4,3.1-2.1,5.1-2.1s3.7,0.7,5.1,2.1
		c1.4,1.4,2.1,3.1,2.1,5c0,2-0.7,3.6-2.1,5c-1.4,1.4-3.1,2.1-5.1,2.1S197.3,209.7,195.9,208.3z M204.1,200.2c-0.8-0.8-1.8-1.3-3-1.3
		s-2.2,0.4-3,1.3c-0.8,0.8-1.2,1.9-1.2,3.1c0,1.2,0.4,2.3,1.2,3.1s1.9,1.2,3.1,1.2c1.2,0,2.2-0.4,3.1-1.2c0.8-0.8,1.2-1.9,1.2-3.1
		C205.3,202,204.9,201,204.1,200.2z"/>
</g>
<g>
	
		<linearGradient id="SVGID_1_" gradientUnits="userSpaceOnUse" x1="136.1002" y1="209.3564" x2="190.732" y2="130.4438" gradientTransform="matrix(1 0 0 -1 0 212)">
		<stop  offset="5.166997e-04" style="stop-color:#00FFFF"/>
		<stop  offset="1" style="stop-color:#FF00FF"/>
	</linearGradient>
	<path class="st1" d="M134.8,7.2c0.9,0.6,2,0.8,3,0.6c1.2-0.3,2.2-1.2,2.7-2.2s0.5-2.1,0.1-3.1c-0.8-2.1-3.6-3-5.6-1.9
		c-1.2,0.7-2,2.1-2,3.5C133.1,5.2,133.8,6.4,134.8,7.2z"/>
	
		<linearGradient id="SVGID_00000178889033132622186520000013000414999758031265_" gradientUnits="userSpaceOnUse" x1="148.5946" y1="218.0065" x2="203.2264" y2="139.0938" gradientTransform="matrix(1 0 0 -1 0 212)">
		<stop  offset="5.166997e-04" style="stop-color:#00FFFF"/>
		<stop  offset="1" style="stop-color:#FF00FF"/>
	</linearGradient>
	<path style="fill:url(#SVGID_00000178889033132622186520000013000414999758031265_);" d="M154.1,8.5c0.8,1.3,1.6,2.7,2.3,4.1
		c0.4,0.7,0.8,1.4,1.3,2.1c0.6,0.8,1.4,1.7,2.5,1.9c2.2,0.5,4.6-1.2,4.9-3.4c0.1-0.9-0.3-1.7-0.7-2.5s-0.8-1.5-1.2-2.3
		c-0.5-0.9-1-1.8-1.6-2.7v0.1V5.7c-0.7-1.3-1.5-2.5-2.3-3.8c-0.5-0.7-1.1-1.3-1.9-1.5c-1-0.3-2-0.2-2.9,0.2c-0.8,0.4-1.6,1.1-1.9,2
		c-0.3,0.5-0.2,1.2-0.2,1.8C152.4,5.8,153.3,7.2,154.1,8.5z"/>
	
		<linearGradient id="SVGID_00000069396770695583118100000001975870570860935832_" gradientUnits="userSpaceOnUse" x1="134.6691" y1="208.3657" x2="189.3009" y2="129.4531" gradientTransform="matrix(1 0 0 -1 0 212)">
		<stop  offset="5.166997e-04" style="stop-color:#00FFFF"/>
		<stop  offset="1" style="stop-color:#FF00FF"/>
	</linearGradient>
	<path style="fill:url(#SVGID_00000069396770695583118100000001975870570860935832_);" d="M141.1,18.1c0.3,0.9,0.7,1.7,1.1,2.5
		c0.8,1.3,1.6,2.7,2.4,4c0.8,1.3,1.5,2.7,2.2,4c0.3,0.6,0.6,1.2,0.9,1.7c0.5,0.8,1,1.7,1.6,2.4c0.2,0.4,0.6,0.7,1,1.1
		c0.7,0.4,1.6,0.6,2.4,0.4c1.2-0.1,2.2-0.8,2.9-1.7c0.6-0.9,0.7-2,0.5-3.1c-0.3-1.2-1-2.3-1.7-3.4c-0.4-0.7-0.8-1.4-1.2-2.1
		c-0.5-0.9-1.1-1.9-1.6-2.8c-0.6-1.1-1.2-2.1-1.8-3.2s-1.3-2.2-2-3.3c-0.9-1.2-2.5-1.6-3.9-1.3l0,0c-1.5,0.4-2.9,1.7-2.9,3.3
		C140.9,17.1,140.9,17.6,141.1,18.1z"/>
	
		<linearGradient id="SVGID_00000103952789459928646970000017353195576366871713_" gradientUnits="userSpaceOnUse" x1="119.2591" y1="197.6972" x2="173.8909" y2="118.7846" gradientTransform="matrix(1 0 0 -1 0 212)">
		<stop  offset="5.166997e-04" style="stop-color:#00FFFF"/>
		<stop  offset="1" style="stop-color:#FF00FF"/>
	</linearGradient>
	<path style="fill:url(#SVGID_00000103952789459928646970000017353195576366871713_);" d="M208.1,53L208.1,53
		c-0.1-0.4-0.3-0.8-0.5-1.2c-1.4-2.4-2.8-4.8-4.1-7.1c-0.5-0.8-1-1.7-1.4-2.5c-0.9-1.5-1.7-2.9-2.6-4.4c-0.6-1-1.1-1.9-1.7-2.9
		c-0.6-1.1-1.2-2.1-1.8-3.2c-0.6-1-1.2-2.1-1.8-3.1s-1.1-1.9-1.7-2.9c-0.9-1.5-1.7-2.9-2.5-4.4c-0.8-1.4-1.6-2.8-2.4-4.2l0,0
		c-0.6-0.9-1.1-1.9-1.6-2.8c-0.8-1.4-1.6-2.8-2.4-4.1c-0.4-0.6-0.8-1.3-1.1-2c-0.8-1.4-1.7-2.9-2.5-4.4c-0.6-1-1.2-2.1-2-2.9
		c-1.5-1.4-4.1-1.1-5.3,0.5c-0.7,0.9-1.1,2.1-0.9,3.3c0.2,1,0.8,1.9,1.3,2.7c1,1.7,2,3.4,2.9,5.1c0.7,1.3,1.5,2.5,2.2,3.8
		c0.8,1.5,1.7,3,2.6,4.5c0.5,0.9,1,1.8,1.6,2.7c0.6,1,1.2,2,1.7,3c0.8,1.3,1.5,2.6,2.2,3.9c0.6,1.1,1.2,2.2,1.9,3.2
		c0.4,0.7,0.8,1.4,1.2,2.1c0.6,1,1.2,2,1.7,3c0.1,0.1,0.1,0.3,0.3,0.3h-0.1c0.7,1.2,1.3,2.4,2.1,3.5c0.7,1.3,1.5,2.7,2.3,4
		c0.7,1.2,1.3,2.3,2,3.5c0.4,0.8,0.9,1.5,1.2,2.3c0.4,1,0.4,2.1,0.2,3.1l0,0c-0.2,0.7-0.6,1.3-1.1,1.9c-1.6,1.7-4.6,1.7-6.2,0.1
		c-0.5-0.5-0.8-1.2-1.1-1.8c-1-1.6-1.9-3.2-2.8-4.9l0,0c-0.5-0.8-1-1.7-1.4-2.5c-0.9-1.5-1.7-3-2.5-4.5c-0.6-0.9-1.1-1.9-1.6-2.8
		c-0.6-1.1-1.3-2.2-1.9-3.4l-0.1,0.1c0-0.2-0.1-0.4-0.2-0.6c-0.3-0.5-0.6-1.1-0.9-1.6c-0.8-1.4-1.6-2.8-2.4-4.1
		c-0.4-0.7-0.8-1.4-1.2-2.2c-0.5-0.9-1.1-1.8-1.6-2.7c-0.5-0.9-1-1.8-1.6-2.6c-1.1-1.3-3-1.6-4.5-0.9c-1.2,0.5-2.1,1.7-2.2,3.1
		c-0.1,1.2,0.5,2.4,1,3.5c0.5,1,1.1,1.9,1.6,2.8c0.5,0.8,0.9,1.7,1.4,2.5c0.4,0.7,0.9,1.5,1.3,2.2c0.6,1,1.2,2.1,1.8,3.2
		c0.4,0.7,0.8,1.4,1.2,2.1c0.7,1.3,1.5,2.6,2.2,3.9l0,0c0.4,0.8,0.8,1.5,1.3,2.3c0.8,1.4,1.6,2.8,2.4,4.2c0.5,0.9,1.1,1.9,1.6,2.8
		c1.4,2.4,2.8,4.9,4.2,7.3l0,0c0.6,0.9,1.1,1.9,1.6,2.8c0.6,1.1,1.3,2.1,1.8,3.3c0.5,1,0.5,2.2,0.2,3.3h-0.1c-0.3,1-1.1,1.8-1.9,2.3
		c-0.3,0.2-0.7,0.3-1.1,0.4c-1.1,0.3-2.2,0.1-3.2-0.4c-1-0.6-1.6-1.7-2.2-2.8c-0.5-0.9-1.1-1.9-1.6-2.8c-1.5-2.5-2.9-5.1-4.4-7.6
		h-0.1v-0.1c-0.5-1-1.1-1.9-1.6-2.9c-0.5-0.8-0.9-1.6-1.4-2.5c-0.7-1.3-1.5-2.6-2.3-3.9c-0.5-0.8-0.9-1.7-1.4-2.5l0,0
		c-0.6-1-1.1-1.9-1.7-2.9c-0.7-1.3-1.5-2.5-2.2-3.8c-0.5-1-1.1-2-2.2-2.5l0,0c-0.8-0.3-1.6-0.5-2.5-0.3c-1.5,0.3-2.8,1.5-3.1,3
		c-0.2,0.9,0,1.8,0.4,2.6c0.5,1.1,1.2,2.1,1.8,3.2l0,0c0.6,1.1,1.3,2.2,1.9,3.3c0.5,0.9,1,1.8,1.5,2.7c0.4,0.7,0.8,1.4,1.2,2
		c0.7,1.3,1.5,2.6,2.3,4c0.5,0.8,0.9,1.6,1.4,2.5c0.5,0.9,1,1.8,1.6,2.7c1.2,2.1,2.4,4.2,3.6,6.3c0.5,0.9,1.1,1.8,1.6,2.8
		c1.3,2.2,2.5,4.4,3.8,6.5h0.1v0.1c0.7,1.5,1.8,2.9,2.4,4.5c0.3,1.3,0,2.8-0.8,3.9c-0.8,1-1.9,1.7-3.2,1.8c-0.2,0-0.3,0-0.5,0
		c-0.4,0-0.8-0.2-1.2-0.2l0.1-0.1c-1.2-0.4-2.1-1.3-2.7-2.4c-0.7-1.4-1.6-2.7-2.3-4.1c-0.8-1.3-1.5-2.6-2.3-3.9l0,0
		c-0.7-1.2-1.4-2.4-2.1-3.7c-0.8-1.4-1.7-2.9-2.5-4.3c-0.6-1-1.1-2-1.7-3c-0.5-0.9-1-1.8-1.6-2.7c-0.6-1.1-1.2-2.1-1.8-3.2
		c-0.4-0.8-0.9-1.6-1.4-2.4c-0.4-0.7-0.9-1.5-1.3-2.3c-0.6-1-1.1-2-1.7-2.9c-0.3-0.6-0.7-1.2-1-1.7c-0.3-0.6-0.6-1.1-1-1.7l0,0
		c-0.4-0.6-0.7-1.2-1.1-1.8c-0.3-0.6-0.6-1.1-1-1.7c-0.5-0.7-0.8-1.5-1.3-2.1c-0.4-0.9-1-1.8-1.5-2.7V45c-0.2-0.5-0.5-0.9-0.8-1.4
		c-0.3-0.6-0.7-1.1-1-1.7c-0.9-1.6-1.9-3.3-2.8-4.9c-1.6-2.7-3.1-5.4-4.7-8.1c-0.3-0.5-0.6-1.1-0.9-1.6c-0.2-0.3-0.4-0.7-0.6-1
		c-0.6-1-1.1-2-1.7-2.9c-0.6-1.1-1.2-2.1-1.8-3.2s-1.2-2.1-1.8-3.2c-0.7-1.2-1.4-2.5-2.1-3.7c-0.6-1.1-1.3-2.3-2-3.4
		c-1.2-1.9-2.2-3.9-3.4-5.8h-0.1V4c-0.6-1-1.1-2.1-1.8-3c-1.3-1.3-3.5-1.4-5-0.4c-1,0.7-1.5,1.8-2,2.8c-0.7,1.2-1.4,2.3-2,3.5
		c-1.6,2.8-3.2,5.6-4.9,8.4l0,0c-2.5,4.4-5,8.7-7.5,13.1c-1.3,2.3-2.7,4.6-4,6.9c-1,1.8-2.2,3.7-3.2,5.5l0.1,0.1H92
		c-0.3,0.4-0.5,0.8-0.8,1.3c-0.9,1.5-1.7,3-2.6,4.5c-0.7,1.1-1.3,2.2-1.9,3.3c-0.9,1.5-1.9,3.2-1.4,5l0,0c0.6,1.2,1.3,2.3,1.9,3.5
		c0.5,0.8,1,1.7,1.4,2.5l0,0c0.8,1.5,1.7,2.9,2.5,4.4l0,0c0.6,1.1,1.2,2.1,1.8,3.1H93v0.1c1,1.9,2.1,3.7,3.2,5.6
		c2.5,4.3,4.9,8.6,7.4,12.8c1.2,2.1,2.5,4.3,3.7,6.4c0.8,1.4,1.6,2.7,2.3,4c0.5,0.9,1,1.8,1.5,2.7c0.3,0.5,0.6,1.1,0.9,1.6
		c0.5,0.8,1,1.7,1.5,2.5c0.4,0.8,0.9,1.6,1.5,2.3c0.4,0.4,0.9,0.9,1.5,1.1c0.4,0.1,0.7,0.2,1.1,0.2c1.7,0.1,3.5-1,4-2.7h0.1
		c0-0.2,0.1-0.4,0.1-0.6h0.1c0-0.5-0.1-1-0.2-1.5l0,0c-0.1-0.5-0.3-1-0.5-1.4c-0.4-0.6-0.7-1.3-1.1-1.9c-0.2-0.4-0.5-0.8-0.7-1.3
		c-0.4-0.6-0.7-1.3-1.1-1.9l0,0c-0.6-1.2-1.3-2.3-2-3.5c-0.9-1.6-1.8-3.2-2.8-4.7l0,0c-3.1-5.3-6.2-10.7-9.3-16
		c-0.9-1.5-1.7-3-2.6-4.5c-0.6-1-1.1-2-1.7-3c-0.8-1.3-1.5-2.7-2.3-4h-0.1v-0.1c-0.4-0.9-1-1.7-1.4-2.6c-0.6-1.1-1.4-2.1-1.7-3.3
		c-0.4-0.8-0.3-1.8,0-2.6c0.5-1.2,1.6-2.3,2.9-2.7c0.6-0.2,1.2-0.1,1.8-0.1c1.3,0.1,2.4,1,3.1,2.1c0.6,0.9,1.1,1.9,1.7,2.9
		c0.7,1.1,1.3,2.3,1.9,3.4l0,0c0.9,1.5,1.8,3.1,2.7,4.6c0.7,1.3,1.5,2.6,2.2,4l0,0c0.5,0.9,1.1,1.9,1.6,2.8l0,0
		c2.5,4.5,5.1,8.9,7.6,13.4c0.4,0.8,1,1.6,1.7,2.2c0.7,0.5,1.4,0.7,2.2,0.7c2.1,0,4-2,3.9-4.1c0-1-0.6-1.9-1.1-2.8
		c-2.5-4.5-5-8.9-7.6-13.3c-0.6-1-1.2-2-1.7-3c-0.7-1.2-1.4-2.5-2.1-3.7l0,0c-0.9-1.6-1.8-3.2-2.7-4.7h-0.1v-0.1
		c-0.6-1.2-1.4-2.4-2-3.6l0,0c-0.5-0.9-1-1.8-1.5-2.6c-0.5-0.9-1-1.7-1.5-2.6c-0.9-1.6-1.8-3.2-2.7-4.7c-0.7-1.1-1.2-2.3-1-3.6h0.1
		c0.1-1.2,0.9-2.2,1.8-2.9c1.1-0.7,2.5-0.9,3.7-0.5l0,0c0.7,0.3,1.4,0.8,1.9,1.4c0.8,1.1,1.4,2.4,2.2,3.6l0,0c0.6,1,1.2,2.1,1.8,3.2
		c0.5,0.7,0.9,1.5,1.3,2.3c0.5,0.9,1,1.8,1.6,2.7c0.7,1.2,1.4,2.5,2.1,3.7c0.5,0.9,1,1.8,1.6,2.7c1.1,1.9,2.1,3.7,3.2,5.6
		c1.6,2.7,3.2,5.5,4.8,8.2c0.3,0.5,0.7,0.8,1.1,1.1c1,0.6,2.2,0.7,3.3,0.4c0.2-0.1,0.4-0.1,0.5-0.2c1.3-0.6,2.2-2,2.2-3.4
		c0-1.3-0.7-2.5-1.3-3.6c-2-3.5-4-7-6-10.5l0,0c0-0.2-0.2-0.4-0.3-0.6c-0.8-1.4-1.6-2.8-2.4-4.2c-0.3-0.7-0.7-1.3-1.1-1.9
		c-0.6-1.1-1.3-2.2-1.9-3.3c-0.5-0.8-0.9-1.7-1.4-2.5c-0.4-0.8-0.9-1.6-1.4-2.4c-0.5-0.9-1.1-1.9-1.6-2.8c-1-1.7-2-3.5-3-5.2
		c-0.8-1.4-1.6-2.9-2.5-4.3c-0.3-0.5-0.5-1.1-0.7-1.7c0-0.5,0-1.1,0.1-1.6c0.3-1.2,1-2.3,2-3c0.9-0.6,1.9-0.7,2.9-0.6
		c0.5,0.1,1,0.2,1.4,0.5c0.9,0.5,1.5,1.3,2,2.2c0.8,1.4,1.6,2.8,2.4,4.2c0.6,1,1.2,2,1.7,3c0.7,1.2,1.4,2.4,2.1,3.6
		c0.7,1.2,1.4,2.5,2.1,3.7c0.6,1,1.2,2.1,1.8,3.1h0.1v0.1c0.4,0.7,0.8,1.4,1.2,2.1c1.1,2,2.3,3.9,3.4,5.9c1.1,1.9,2.2,3.9,3.4,5.8
		l0,0c0.7,1.2,1.4,2.4,2.1,3.6c0.2,0.4,0.5,0.8,0.7,1.2s0.4,0.7,0.6,1c0.3,0.6,0.7,1.3,1.1,1.9c0.2,0.5,0.5,0.9,0.8,1.4
		c0.2,0.4,0.5,0.8,0.7,1.2s0.4,0.8,0.7,1.1l0,0c0.2,0.4,0.5,0.9,0.7,1.3c0.2,0.3,0.4,0.7,0.6,1c0.5,0.9,1,1.8,1.5,2.7
		c0.3,0.6,0.7,1.2,1,1.7c0.4,0.8,0.9,1.5,1.3,2.3c0.5,0.9,1,1.8,1.6,2.7c0.4,0.7,0.8,1.3,1.2,2c0.5,0.9,1,1.8,1.5,2.7l0,0
		c0.5,1,1.2,2,1.7,3c0.8,1.4,1.6,2.7,2.3,4.1c0.6,1,1.2,2.1,1.8,3.1h0.1v0.1c1.4,2.4,2.8,4.9,4.2,7.3l0,0c1.3,2.3,2.7,4.6,4,6.9l0,0
		c0.4,0.7,0.8,1.4,1.2,2.1s0.8,1.5,1.4,2c1.7,1.5,4.8,1.1,5.9-0.9c2-3.5,4.1-7.1,6.1-10.6c1.7-2.9,3.3-5.7,5-8.6l0,0
		c2.2-3.9,4.4-7.7,6.6-11.5c1-1.8,2-3.5,3-5.3c1.3-2.3,2.6-4.5,3.9-6.8c0.1-0.3,0.4-0.5,0.4-0.8c0,0,0,0.1,0.1,0.1
		c1-1.8,2-3.5,3-5.3c0.4-0.7,0.9-1.5,1.2-2.3C208.2,54.3,208.2,53.7,208.1,53z"/>
	
		<linearGradient id="SVGID_00000080200371409103059030000003381145438833224597_" gradientUnits="userSpaceOnUse" x1="103.5552" y1="186.8253" x2="158.187" y2="107.9127" gradientTransform="matrix(1 0 0 -1 0 212)">
		<stop  offset="5.166997e-04" style="stop-color:#00FFFF"/>
		<stop  offset="1" style="stop-color:#FF00FF"/>
	</linearGradient>
	<path style="fill:url(#SVGID_00000080200371409103059030000003381145438833224597_);" d="M151.5,88.5c-0.9-1.7-1.8-3.4-2.8-5
		c-0.6-1-1.2-2.1-1.7-3.1c-0.6-1-1.2-2.1-1.8-3l0,0c-0.4-0.5-0.7-1.1-1.1-1.6l0,0c-0.3-0.4-0.6-0.9-1-1.2l0,0
		c-0.3-0.2-0.6-0.4-1-0.5l-0.1,0.1v-0.1c-0.3-0.1-0.6-0.1-0.8-0.2c-0.3,0-0.6,0-0.9,0l0,0c-0.5,0.1-1,0.3-1.4,0.5l0,0
		c-1.1,0.6-1.9,1.7-2,3c-0.1,0.9,0.3,1.7,0.7,2.5c0.2,0.7,0.6,1.4,1,2l0,0c0.2,0.4,0.4,0.7,0.6,1.1l0,0c0.1,0.2,0.2,0.4,0.3,0.5
		c0.2,0.4,0.4,0.8,0.7,1.1v-0.1v0.2c0.3,0.4,0.5,0.8,0.7,1.2c0.2,0.4,0.4,0.7,0.7,1.1c0.4,0.8,0.9,1.5,1.3,2.3
		c0.5,0.8,0.9,1.6,1.3,2.4c0.5,1,1.2,1.9,2.1,2.6c0.7,0.5,1.6,0.7,2.4,0.7c1.8-0.2,3.4-1.6,3.6-3.4C152.5,90.3,152,89.3,151.5,88.5z
		"/>
	
		<linearGradient id="SVGID_00000029019796001259477450000009205135610481864117_" gradientUnits="userSpaceOnUse" x1="89.8448" y1="177.3335" x2="144.4766" y2="98.4209" gradientTransform="matrix(1 0 0 -1 0 212)">
		<stop  offset="5.166997e-04" style="stop-color:#00FFFF"/>
		<stop  offset="1" style="stop-color:#FF00FF"/>
	</linearGradient>
	<path style="fill:url(#SVGID_00000029019796001259477450000009205135610481864117_);" d="M140.2,101.5c-0.3-0.7-0.7-1.3-1.1-2
		c-0.1-0.2-0.2-0.4-0.3-0.6c-0.3-0.5-0.6-1-0.8-1.5c-0.4-0.7-0.8-1.3-1.2-2s-0.8-1.3-1.2-2l0,0c-0.4-0.6-0.7-1.2-1.3-1.7
		c-0.2-0.1-0.4-0.2-0.6-0.4c-0.6-0.3-1.2-0.3-1.8-0.4V91c-2.4-0.1-4.3,2.6-3.6,4.9l0.1-0.1c0,0.6,0.4,1.1,0.6,1.6
		c0.3,0.5,0.6,1,0.8,1.5l0,0c0,0,0.1,0.1,0.2,0.1c0.2,0.4,0.5,0.8,0.8,1.3l0,0c0.4,0.6,0.7,1.1,1,1.7c0.5,0.9,1,1.9,1.5,2.8
		c0.8,1.4,2.2,2.8,3.9,2.8c0.4-0.1,0.9,0,1.2-0.3v0.1c0.6-0.3,1.1-0.6,1.6-1c0.5-0.5,1-1.2,1.2-2
		C141.2,103.6,140.8,102.5,140.2,101.5L140.2,101.5z"/>
	
		<linearGradient id="SVGID_00000064344713132396343550000011856479136298286224_" gradientUnits="userSpaceOnUse" x1="102.2031" y1="185.8893" x2="156.8349" y2="106.9767" gradientTransform="matrix(1 0 0 -1 0 212)">
		<stop  offset="5.166997e-04" style="stop-color:#00FFFF"/>
		<stop  offset="1" style="stop-color:#FF00FF"/>
	</linearGradient>
	<path style="fill:url(#SVGID_00000064344713132396343550000011856479136298286224_);" d="M154.9,100.1c-1.3,0.4-2.4,1.5-2.7,2.9
		c-0.4,1.5,0.3,3.3,1.6,4.2c1,0.7,2.2,0.9,3.4,0.6c1.8-0.6,3.3-2.5,2.8-4.5C159.7,101,157.1,99.4,154.9,100.1z"/>
</g>
</svg>
