<svg id="visual" viewBox="0 0 675 900" width="675" height="900" xmlns="http://www.w3.org/2000/svg" xmlns:xlink="http://www.w3.org/1999/xlink" version="1.1"><rect x="0" y="0" width="675" height="900" fill="#4a5b63"></rect><path d="M0 671L16 684C32 697 64 723 96.2 714.5C128.3 706 160.7 663 192.8 644C225 625 257 630 289.2 643.2C321.3 656.3 353.7 677.7 385.8 685.7C418 693.7 450 688.3 482.2 696.5C514.3 704.7 546.7 726.3 578.8 716.5C611 706.7 643 665.3 659 644.7L675 624L675 901L659 901C643 901 611 901 578.8 901C546.7 901 514.3 901 482.2 901C450 901 418 901 385.8 901C353.7 901 321.3 901 289.2 901C257 901 225 901 192.8 901C160.7 901 128.3 901 96.2 901C64 901 32 901 16 901L0 901Z" fill="#e6eef2"></path><path d="M0 747L16 753.5C32 760 64 773 96.2 780.8C128.3 788.7 160.7 791.3 192.8 785.8C225 780.3 257 766.7 289.2 766.7C321.3 766.7 353.7 780.3 385.8 775C418 769.7 450 745.3 482.2 736.3C514.3 727.3 546.7 733.7 578.8 741.7C611 749.7 643 759.3 659 764.2L675 769L675 901L659 901C643 901 611 901 578.8 901C546.7 901 514.3 901 482.2 901C450 901 418 901 385.8 901C353.7 901 321.3 901 289.2 901C257 901 225 901 192.8 901C160.7 901 128.3 901 96.2 901C64 901 32 901 16 901L0 901Z" fill="#c5d7e2"></path></svg>