<?xml version="1.0" encoding="UTF-8"?>
<svg width="178px" height="34px" viewBox="0 0 178 34" version="1.1" xmlns="http://www.w3.org/2000/svg" xmlns:xlink="http://www.w3.org/1999/xlink">
    <title>veefriends</title>
    <g id="Page-1" stroke="none" stroke-width="1" fill="none" fill-rule="evenodd">
        <path d="M108.798488,15.4533753 C111.282237,15.4533753 113.158848,16.1157085 114.538708,17.3851803 C115.918569,18.6546521 116.580902,20.4760683 116.580902,22.7942342 C116.580902,23.6221506 116.525708,24.3948726 116.360124,25.222789 L115.532208,26.2162887 L106.259544,26.2714832 C106.425127,27.0442051 106.866683,27.7617327 107.529016,28.2032881 C108.301738,28.6448435 109.184849,28.8656213 110.123154,28.8104268 C111.94457,28.700038 113.710792,28.4240658 115.477014,27.8721216 L115.973763,28.2584826 L114.869875,33.225981 C113.048459,33.7227309 111.227043,33.998703 109.350432,33.998703 C106.259544,33.998703 103.830989,33.1707866 102.119962,31.5149538 C100.408935,29.859121 99.5258239,27.5961494 99.5258239,24.7260392 C99.5258239,21.8559289 100.35374,19.5929574 102.009573,17.9371246 C103.665406,16.2812918 105.928378,15.4533753 108.798488,15.4533753 Z M30.9743448,15.4533753 C33.458094,15.4533753 35.3347046,16.1157085 36.7145653,17.3851803 C38.094426,18.6546521 38.7567591,20.4760683 38.7567591,22.7942342 C38.7567591,23.6221506 38.7015647,24.3948726 38.5359814,25.222789 L37.708065,26.2162887 L28.4354011,26.2714832 C28.6009844,27.0442051 29.0425398,27.7617327 29.704873,28.2032881 C30.477595,28.6448435 31.3607058,28.8656213 32.2990111,28.8104268 C34.1204272,28.700038 35.8866489,28.4240658 37.6528705,27.8721216 L38.2048148,28.2584826 L37.1009263,33.225981 C35.2795102,33.7227309 33.458094,33.998703 31.5814835,33.998703 C28.4905956,33.998703 26.0620407,33.1707866 24.3510135,31.5149538 C22.6399862,29.859121 21.7568754,27.5961494 21.701681,24.7260392 C21.701681,21.8559289 22.5295974,19.5929574 24.1854302,17.9371246 C25.841263,16.2812918 28.1042346,15.4533753 30.9743448,15.4533753 Z M49.0781171,15.4533753 C51.5618663,15.4533753 53.4384769,16.1157085 54.8183375,17.3851803 C56.1981982,18.6546521 56.8605314,20.4760683 56.8605314,22.7942342 C56.8605314,23.6221506 56.8053369,24.3948726 56.6397537,25.222789 L55.8118372,26.2162887 L46.5391734,26.2714832 C46.7047567,27.0442051 47.1463121,27.7617327 47.8086452,28.2032881 C48.5813672,28.6448435 49.5196725,28.8656213 50.4027833,28.8104268 C52.2241994,28.700038 53.9904211,28.4240658 55.7566428,27.8721216 L56.3085871,28.2584826 L55.2046985,33.225981 C53.3832824,33.7227309 51.5618663,33.998703 49.6852558,33.998703 C46.5943678,33.998703 44.165813,33.1707866 42.4547858,31.5149538 C40.6885641,29.859121 39.8606477,27.5961494 39.8606477,24.7260392 C39.8606477,21.8559289 40.6885641,19.5929574 42.3443969,17.9371246 C44.0002297,16.2812918 46.2080068,15.4533753 49.0781171,15.4533753 Z M166.91822,15.2877921 C168.739636,15.4533753 170.616247,15.7845419 172.382468,16.3916806 L171.444163,21.4143735 L170.616247,21.6903457 C169.78833,21.1935958 168.90522,20.7520404 168.022109,20.4208738 C167.359776,20.1449017 166.642248,19.9793184 165.92472,19.9793184 C165.262387,19.9793184 164.931221,20.2000961 164.931221,20.6416515 C164.931221,20.9728181 165.151998,21.3039847 165.483165,21.469568 C166.090304,21.8007345 166.697442,22.0215122 167.359776,22.2422899 C168.298081,22.5734565 169.181192,22.9598175 170.064302,23.4013729 C170.78183,23.7877339 171.444163,24.3948726 171.940913,25.0572057 C172.492857,25.8299277 172.768829,26.8234274 172.713635,27.7617327 C172.713635,28.8104268 172.437663,29.9143154 171.885719,30.7974262 C171.27858,31.7909259 170.340275,32.6188423 169.236386,33.0603978 C167.801331,33.6675365 166.255887,33.9435086 164.710443,33.8883142 C162.55786,33.8883142 160.405278,33.5571476 158.363084,32.8948145 L159.246195,27.540955 L159.853333,27.0993996 C160.791639,27.8169271 161.785138,28.3688714 162.889027,28.8104268 C163.772138,29.1967878 164.710443,29.4175655 165.648748,29.47276 C166.366276,29.47276 166.697442,29.2519823 166.697442,28.7552324 C166.697442,28.4240658 166.476665,28.0928993 166.145498,27.927316 C165.538359,27.5961494 164.931221,27.3201773 164.268888,27.154594 C163.330582,26.8234274 162.447471,26.4370664 161.564361,25.995511 C160.846833,25.60915 160.1845,25.0572057 159.68775,24.3396782 C159.135806,23.5117618 158.859834,22.5734565 158.915028,21.5799568 C158.915028,20.4760683 159.246195,19.3721797 159.853333,18.37868 C160.515667,17.3851803 161.509166,16.6124583 162.613055,16.1157085 C163.992915,15.5085698 165.427971,15.2325976 166.91822,15.2877921 Z M155.713751,7.22940562 L155.437779,25.6643445 L155.492974,27.927316 C155.492974,28.1480937 155.492974,28.3688714 155.603362,28.5896491 C155.658557,28.700038 155.82414,28.8104268 155.989723,28.7552324 C156.210501,28.7552324 156.431279,28.700038 156.596862,28.6448435 L157.038418,29.0312045 L156.376084,32.7844256 C155.32739,33.4467588 154.113113,33.8331197 152.898835,33.8883142 C152.126114,33.8331197 151.408586,33.5571476 150.801447,33.1155922 C150.194309,32.6188423 149.697559,32.0117036 149.366392,31.2389816 L149.09042,31.2389816 C148.09692,32.2876758 146.882643,33.1707866 145.557977,33.8331197 C143.405394,33.9435086 141.3632,33.0603978 139.983339,31.4597594 C138.658673,29.859121 137.941146,27.7065383 137.941146,24.9468169 C137.941146,21.8559289 138.769062,19.537763 140.424895,17.9371246 C142.080728,16.3364862 144.343699,15.5085698 147.213809,15.5085698 C147.655365,15.5085698 148.152115,15.5637642 148.59367,15.6189586 L148.483281,7.72615547 L155.713751,7.22940562 Z M62.876724,0.0215653102 C62.9319184,0.0215653102 62.9319184,0.0767597378 62.9871128,0.0767597378 C62.9871128,0.131954165 63.0423073,0.187148593 63.0423073,0.242343021 L63.0423073,0.95987058 C63.0423073,1.34623157 63.0975017,1.73259257 63.0975017,2.11895356 C63.0975017,2.33973127 63.0975017,2.61570341 63.1526961,2.83648112 C63.1526961,3.16764769 63.1526961,3.49881425 63.2078906,3.82998082 C63.2078906,4.21634181 63.2078906,4.54750838 63.0975017,4.93386937 C63.0423073,5.15464708 62.9871128,5.32023036 62.8215296,5.48581365 C63.0975017,5.76178579 63.0975017,5.76178579 63.0423073,5.81698021 C63.2078906,5.76178579 63.3734738,5.76178579 63.4838627,5.70659136 L64.4773624,5.54100808 C64.808529,5.48581365 65.1396955,5.54100808 65.4156677,5.54100808 C65.5260565,5.54100808 65.6364454,5.54100808 65.7468342,5.5962025 C65.9124175,5.5962025 66.0228064,5.65139693 66.1883896,5.76178579 C66.4643618,5.87217464 66.6851395,6.03775792 66.9059172,6.20334121 L67.1266949,6.42411892 C67.1818893,6.47931335 67.1818893,6.47931335 67.2370838,6.47931335 C67.5130559,6.31373006 67.8442225,6.31373006 68.175389,6.25853564 C68.3409723,6.20334121 68.5065556,6.20334121 68.6169445,6.20334121 C68.8377222,6.20334121 69.0584999,6.36892449 69.1688887,6.5897022 C69.334472,6.86567434 69.5000553,7.19684091 69.5552497,7.52800747 C69.6104442,7.85917404 69.6104442,8.1903406 69.6104442,8.52150717 L69.6098542,9.32670303 L75.1298869,9.32679387 L75.5714423,9.82354372 L75.0746925,15.2877921 L69.1136943,15.0670143 L66.4091674,15.0670143 L66.2987785,19.4273741 L68.8377222,19.4273741 L73.198082,19.3169853 L73.584443,19.8689296 L73.1428875,25.3331779 L68.3409723,25.222789 L66.1883896,25.222789 L66.1883896,25.7195389 L66.4643618,33.5571476 L58.9579196,33.5571476 L59.3442806,26.4370664 L58.9579196,9.32679387 L60.1548542,9.32670303 L60.1178857,9.27745005 C60.0596004,9.17500919 60.0507693,9.05137367 60.0066137,8.96306259 C60.0066137,8.79747931 59.9514193,8.5767016 59.9514193,8.41111831 C59.9514193,7.80397961 59.9514193,7.25203533 59.8962249,6.64489663 L59.8962249,6.42411892 C59.8962249,6.36892449 59.8962249,6.31373006 59.785836,6.31373006 C59.5098639,6.31373006 59.2338918,6.31373006 58.9579196,6.20334121 C58.6819475,6.09295235 58.4611698,5.87217464 58.2955865,5.65139693 C58.1851976,5.48581365 58.1300032,5.26503594 58.1300032,5.04425823 L58.1300032,4.10595296 C58.1300032,3.94036967 58.1851976,3.82998082 58.1851976,3.66439754 C58.2403921,3.22284211 58.2955865,2.78128669 58.2955865,2.33973127 C58.3507809,1.89817585 58.3507809,1.45662043 58.4059753,1.01506501 C58.4059753,0.849481725 58.4611698,0.628704014 58.4611698,0.463120731 C58.4611698,0.407926304 58.5163642,0.352731876 58.5715586,0.407926304 L58.6819475,0.518315159 C58.9027252,0.794287297 59.0131141,1.12545386 59.1235029,1.45662043 C59.1786973,1.56700928 59.1786973,1.62220371 59.2338918,1.73259257 C59.2890862,1.73259257 59.3442806,1.67739814 59.399475,1.67739814 C59.6754472,1.56700928 59.9514193,1.51181486 60.2273915,1.45662043 C60.5033636,1.401426 60.7793357,1.401426 61.0553079,1.401426 C61.33128,1.401426 61.5520577,1.51181486 61.7728354,1.56700928 C61.8832243,1.62220371 61.9936131,1.67739814 62.1591964,1.787787 C62.1591964,1.73259257 62.2143909,1.62220371 62.2143909,1.56700928 C62.3247797,1.29103715 62.4351686,0.95987058 62.5455574,0.683898442 C62.6007518,0.463120731 62.7111407,0.297537448 62.7663351,0.0767597378 C62.7663351,0.0215653102 62.8215296,-0.0336291175 62.876724,0.0215653102 Z M97.3180468,15.8397363 L96.9868803,25.7195389 L97.2628524,33.5571476 L89.977188,33.5571476 L90.3083545,26.4370664 L90.0323824,16.2812918 L97.3180468,15.8397363 Z M7.79268519,9.32679387 L8.45501832,13.3007927 L11.2699341,26.8234274 L11.7114896,26.8234274 L15.1335441,13.7975425 L15.8510716,9.32679387 L23.1919305,9.32679387 L15.8510716,33.5019532 L6.79918549,33.5019532 L0.175854172,9.32679387 L7.79268519,9.32679387 Z M130.158731,15.5637642 C132.035342,15.5637642 133.470397,16.0053196 134.463897,16.833236 C135.457396,17.7715413 136.009341,19.0962076 135.898952,20.4760683 L135.733368,25.5539556 L136.009341,33.3915643 L128.778871,33.5019532 L129.165232,23.6221506 C129.165232,22.0767067 128.558093,21.3591791 127.39901,21.3591791 C126.791871,21.3591791 126.184733,21.5247624 125.632788,21.8559289 L125.632788,25.60915 L125.90876,33.4467588 L118.567901,33.4467588 L118.899068,26.3266776 L118.623096,16.1709029 L125.522399,15.7293475 L125.522399,18.3234856 L125.798372,18.3234856 C127.012649,17.0540137 128.502898,16.1157085 130.158731,15.5637642 Z M87.3830499,15.7845419 C87.7142164,15.8397363 87.9901886,15.8397363 88.2661607,15.8949308 L88.2661607,22.4078732 L87.5486331,22.6286509 C87.1622722,22.4078732 86.6655223,22.2974844 86.2239669,22.3526788 C85.6168282,22.3526788 85.0096895,22.5182621 84.4577452,22.7390398 C83.8506065,23.0150119 83.2434678,23.3461785 82.7467179,23.7877339 L82.7467179,25.6643445 L83.0226901,33.5019532 L75.7922201,33.5019532 L76.1233866,26.381872 L75.8474145,16.2260973 L82.7467179,15.7845419 L82.7467179,19.0962076 L83.0778845,19.0962076 C84.1265786,16.8884305 85.5616338,15.7845419 87.3830499,15.7845419 Z M145.282004,21.0280125 C144.950838,21.469568 144.785255,21.2487902 144.785255,22.5182621 C144.785255,24.2292893 144.950838,26.6026497 145.282004,27.3201773 C145.557977,28.0377048 146.22031,28.4792603 146.937837,28.4792603 C147.60017,28.4792603 148.207309,28.2032881 148.704059,27.7065383 L148.759253,26.381872 L148.704059,20.7520404 C148.152115,20.5312627 147.60017,20.3656794 147.048226,20.3656794 C146.385893,20.310485 145.72356,20.5312627 145.282004,21.0280125 Z M30.9191504,20.0897073 C29.5392897,20.0897073 28.7113733,20.9728181 28.4354011,22.7390398 L32.5749832,22.5734565 L32.5749832,22.0767067 C32.5749832,20.7520404 32.0230389,20.0897073 30.9191504,20.0897073 Z M108.632905,20.0897073 C107.253044,20.0897073 106.425127,20.9728181 106.149155,22.7390398 L110.288737,22.5734565 L110.343932,22.0767067 C110.343932,20.7520404 109.791987,20.0897073 108.632905,20.0897073 Z M49.0229226,20.0897073 C47.643062,20.0897073 46.8151455,20.9728181 46.5391734,22.7390398 L50.623561,22.5734565 L50.6787555,22.0767067 C50.6787555,20.7520404 50.1268112,20.0897073 49.0229226,20.0897073 Z M175.694134,12.4176818 L176.190884,13.7975425 L176.687634,12.4176818 L177.405161,12.4176818 L177.405161,14.5150701 L176.853217,14.5150701 L176.853217,13.1352094 L176.356467,14.5150701 L175.970106,14.5150701 L175.473356,13.1352094 L175.473356,14.5150701 L174.921412,14.5150701 L174.976607,12.4176818 L175.694134,12.4176818 Z M174.479857,12.4176818 L174.479857,12.8592372 L173.872718,12.8592372 L173.872718,14.5150701 L173.320774,14.5150701 L173.320774,12.8592372 L172.713635,12.8592372 L172.713635,12.4176818 L174.479857,12.4176818 Z M93.8407979,6.23590592 C94.7239087,6.23590592 95.662214,6.56707249 96.3245471,7.22940562 C96.9868803,7.94693318 97.3180468,8.88523845 97.2628524,9.82354372 C97.3180468,10.8722378 96.9316858,11.8657375 96.2693527,12.6384595 C95.5518252,13.3559871 94.5583255,13.7423481 93.5096313,13.6871537 C92.5713261,13.7423481 91.5778264,13.4111815 90.9154932,12.7488484 C90.2531601,12.0313208 89.977188,11.0930156 90.0323824,10.0995159 C89.977188,9.05082173 90.363549,8.0021276 91.0810765,7.28460005 C91.7986041,6.56707249 92.7921038,6.18071149 93.8407979,6.23590592 Z M67.5682503,6.86567434 C67.5682503,6.86567434 67.5682503,6.92086877 67.6234448,6.92086877 C67.6786392,7.08645205 67.7338336,7.19684091 67.789028,7.36242419 C67.8994169,7.69359075 67.9546113,8.02475732 68.0098058,8.35592389 C68.0650002,8.63189602 68.0650002,8.90786816 68.0650002,9.1838403 C68.0650002,9.24586832 68.0475733,9.29046943 68.0127194,9.32743588 L68.9412832,9.32702584 C68.9454443,9.20570476 68.948111,9.08438368 68.948111,8.96306259 C68.948111,8.5767016 68.8929166,8.24553503 68.8377222,7.85917404 C68.8377222,7.69359075 68.7273333,7.52800747 68.6721389,7.36242419 C68.56175,7.08645205 68.3409723,6.97606319 68.0650002,6.92086877 C67.8994169,6.92086877 67.7338336,6.86567434 67.5682503,6.86567434 Z M67.0163061,8.07995175 L66.9059172,8.07995175 L66.9059172,8.5767016 C66.9059172,8.74228488 66.9059172,8.90786816 66.8507228,9.07345145 C66.8507228,9.1838403 66.7955284,9.23903473 66.7403339,9.29422916 L66.7158542,9.32670303 L67.2905243,9.32787449 C67.2280515,9.27141546 67.1818893,9.20003067 67.1818893,9.12864587 L67.1818893,8.1903406 C67.1818893,8.02475732 67.1818893,8.02475732 67.0163061,8.07995175 Z M63.8150293,7.52800747 C63.5390571,7.5832019 63.263085,7.63839633 62.9871128,7.63839633 C62.7111407,7.69359075 62.490363,7.80397961 62.2695853,7.96956289 C62.2695853,7.96956289 62.2143909,8.02475732 62.2143909,8.07995175 C62.2143909,8.30072946 62.2143909,8.52150717 62.2695853,8.74228488 C62.2695853,8.85267373 62.3247797,8.96306259 62.3247797,9.07345145 L62.3238542,9.32670303 L66.0568542,9.32670303 L66.0374674,9.30716535 C65.9986588,9.26318229 65.9676119,9.21143751 65.9676119,9.12864587 L65.9676119,8.68709045 C65.9676119,8.41111831 65.9676119,8.07995175 65.9124175,7.80397961 C65.9124175,7.74878518 65.8572231,7.69359075 65.8020287,7.69359075 L64.9741122,7.52800747 C64.5877512,7.47281304 64.2013903,7.52800747 63.8150293,7.52800747 Z M61.2760856,7.85917404 L61.0553079,7.85917404 L61.0553079,9.01825702 C61.0553079,9.12696941 61.0315165,9.2356818 60.9995537,9.32877412 L61.4116449,9.32737939 C61.3864744,9.26219424 61.3864744,9.1875596 61.3864744,9.12864587 C61.3864744,8.74228488 61.33128,8.30072946 61.33128,7.91436846 C61.33128,7.85917404 61.33128,7.85917404 61.2760856,7.85917404 Z" id="veefriends" fill="#FFFFFF" fill-rule="nonzero"></path>
    </g>
</svg>