<svg id="visual" viewBox="0 0 540 960" width="540" height="960" xmlns="http://www.w3.org/2000/svg" xmlns:xlink="http://www.w3.org/1999/xlink" version="1.1"><rect x="0" y="0" width="540" height="960" fill="#4a5b63"></rect><path d="M0 716L12.8 729.8C25.7 743.7 51.3 771.3 77 762.3C102.7 753.3 128.3 707.7 154 687.3C179.7 667 205.3 672 231.2 686C257 700 283 723 308.8 731.7C334.7 740.3 360.3 734.7 386 743.3C411.7 752 437.3 775 463 764.3C488.7 753.7 514.3 709.3 527.2 687.2L540 665L540 961L527.2 961C514.3 961 488.7 961 463 961C437.3 961 411.7 961 386 961C360.3 961 334.7 961 308.8 961C283 961 257 961 231.2 961C205.3 961 179.7 961 154 961C128.3 961 102.7 961 77 961C51.3 961 25.7 961 12.8 961L0 961Z" fill="#e6eef2"></path><path d="M0 797L12.8 803.8C25.7 810.7 51.3 824.3 77 832.7C102.7 841 128.3 844 154 838.2C179.7 832.3 205.3 817.7 231.2 817.7C257 817.7 283 832.3 308.8 826.7C334.7 821 360.3 795 386 785.5C411.7 776 437.3 783 463 791.7C488.7 800.3 514.3 810.7 527.2 815.8L540 821L540 961L527.2 961C514.3 961 488.7 961 463 961C437.3 961 411.7 961 386 961C360.3 961 334.7 961 308.8 961C283 961 257 961 231.2 961C205.3 961 179.7 961 154 961C128.3 961 102.7 961 77 961C51.3 961 25.7 961 12.8 961L0 961Z" fill="#d9e5ec"></path></svg>