<svg id="visual" viewBox="0 0 600 900" width="600" height="900" xmlns="http://www.w3.org/2000/svg" xmlns:xlink="http://www.w3.org/1999/xlink" version="1.1"><rect x="0" y="0" width="600" height="900" fill="#4a5b63"></rect><path d="M0 671L14.3 684C28.7 697 57.3 723 85.8 714.5C114.3 706 142.7 663 171.2 644C199.7 625 228.3 630 257 643.2C285.7 656.3 314.3 677.7 343 685.7C371.7 693.7 400.3 688.3 428.8 696.5C457.3 704.7 485.7 726.3 514.2 716.5C542.7 706.7 571.3 665.3 585.7 644.7L600 624L600 901L585.7 901C571.3 901 542.7 901 514.2 901C485.7 901 457.3 901 428.8 901C400.3 901 371.7 901 343 901C314.3 901 285.7 901 257 901C228.3 901 199.7 901 171.2 901C142.7 901 114.3 901 85.8 901C57.3 901 28.7 901 14.3 901L0 901Z" fill="#e6eef2"></path><path d="M0 747L14.3 753.5C28.7 760 57.3 773 85.8 780.8C114.3 788.7 142.7 791.3 171.2 785.8C199.7 780.3 228.3 766.7 257 766.7C285.7 766.7 314.3 780.3 343 775C371.7 769.7 400.3 745.3 428.8 736.3C457.3 727.3 485.7 733.7 514.2 741.7C542.7 749.7 571.3 759.3 585.7 764.2L600 769L600 901L585.7 901C571.3 901 542.7 901 514.2 901C485.7 901 457.3 901 428.8 901C400.3 901 371.7 901 343 901C314.3 901 285.7 901 257 901C228.3 901 199.7 901 171.2 901C142.7 901 114.3 901 85.8 901C57.3 901 28.7 901 14.3 901L0 901Z" fill="#d9e5ec"></path></svg>