<?xml version="1.0" encoding="UTF-8"?>
<svg width="68px" height="47px" viewBox="0 0 68 47" version="1.1" xmlns="http://www.w3.org/2000/svg" xmlns:xlink="http://www.w3.org/1999/xlink">
    <title>zedrun</title>
    <defs>
        <polygon id="path-1" points="0 45.6473654 66.9813471 45.6473654 66.9813471 0 0 0"></polygon>
        <polygon id="path-3" points="0 45.6473654 66.9813471 45.6473654 66.9813471 0 0 0"></polygon>
    </defs>
    <g id="Page-1" stroke="none" stroke-width="1" fill="none" fill-rule="evenodd">
        <g id="Artboard" transform="translate(-1142.000000, -43.000000)">
            <g id="zedrun" transform="translate(1142.949913, 43.500000)">
                <path d="M14.8439087,15.8822606 L0,15.8822606 C0,19.4617065 3.54230811,19.5132305 3.54230811,19.5132305 L13.6632019,19.5132305 L0,42.2284097 C0,45.639005 3.45796186,45.6483516 3.45796186,45.6483516 L18.0910518,45.6483516 C18.0910518,42.2615224 14.8439087,42.2284097 14.8439087,42.2284097 L3.54230811,42.2284097 L18.0910518,19.5132305 C18.0910518,15.8822606 14.8439087,15.8822606 14.8439087,15.8822606" id="Fill-1" fill="#FFFFFF" fill-rule="nonzero"></path>
                <path d="M39.0729014,15.8822606 L27.737171,15.8822606 C27.737171,15.8822606 24.4018838,16.2581211 24.4018838,19.5635793 L42.5981162,19.5635793 C42.5981162,19.5635793 42.3986545,15.8822606 39.0729014,15.8822606" id="Fill-3" fill="#FFFFFF" fill-rule="nonzero"></path>
                <path d="M27.7435165,45.6483516 L39.1008138,45.6483516 C42.6326884,45.6483516 42.5981226,42.2825746 42.5981226,42.2825746 L24.4018838,42.2825746 C24.4018838,45.6483516 27.7435165,45.6483516 27.7435165,45.6483516" id="Fill-5" fill="#FFFFFF" fill-rule="nonzero"></path>
                <g id="Fill-7-Clipped">
                    <mask id="mask-2" fill="white">
                        <use xlink:href="#path-1"></use>
                    </mask>
                    <g id="path-1"></g>
                    <polygon id="Fill-7" fill="#FFFFFF" fill-rule="nonzero" mask="url(#mask-2)" points="24.388235 32.4335766 42.5918906 32.4335766 42.5918906 29.0138012 24.388235 29.0138012"></polygon>
                </g>
                <g id="Fill-9-Clipped">
                    <mask id="mask-4" fill="white">
                        <use xlink:href="#path-3"></use>
                    </mask>
                    <g id="path-3"></g>
                    <path d="M63.5590661,19.5149333 L63.5590661,39.8858859 C63.5590661,39.8858859 63.5272106,42.2046531 61.4897715,42.2046531 L54.1052533,42.2277591 C54.1052533,42.2277591 52.0285822,42.2277591 52.0285822,39.8669597 L52.0415029,21.005878 C52.0415029,21.005878 52.0415029,19.5149333 54.0669609,19.5149333 L63.5590661,19.5149333 Z M66.9802007,42.2277591 L66.9802007,2.81779949e-05 L63.5590661,2.81779949e-05 L63.5590661,15.8843396 L52.1550646,15.8843396 C48.7684637,15.8843396 48.7342119,19.5149333 48.7342119,19.5149333 L48.7342119,42.2277591 C48.7342119,45.6399265 52.0285822,45.6473466 52.0285822,45.6473466 L63.6013991,45.6473466 C67.1412638,45.6473466 66.9802007,42.2277591 66.9802007,42.2277591 Z" id="Fill-9" fill="#FFFFFF" fill-rule="nonzero" mask="url(#mask-4)"></path>
                </g>
            </g>
        </g>
    </g>
</svg>