<svg id="visual" viewBox="0 0 900 300" width="900" height="300" xmlns="http://www.w3.org/2000/svg" xmlns:xlink="http://www.w3.org/1999/xlink" version="1.1"><rect x="0" y="0" width="900" height="300" fill="#d9e5ec"></rect><path d="M0 149L15 171.2C30 193.3 60 237.7 90 240.8C120 244 150 206 180 187.5C210 169 240 170 270 177.8C300 185.7 330 200.3 360 204.7C390 209 420 203 450 192.8C480 182.7 510 168.3 540 158C570 147.7 600 141.3 630 160.7C660 180 690 225 720 246.2C750 267.3 780 264.7 810 242.3C840 220 870 178 885 157L900 136L900 301L885 301C870 301 840 301 810 301C780 301 750 301 720 301C690 301 660 301 630 301C600 301 570 301 540 301C510 301 480 301 450 301C420 301 390 301 360 301C330 301 300 301 270 301C240 301 210 301 180 301C150 301 120 301 90 301C60 301 30 301 15 301L0 301Z" fill="#4a5b63" stroke-linecap="round" stroke-linejoin="miter"></path></svg>