<svg id="visual" viewBox="0 0 960 300" width="960" height="300" xmlns="http://www.w3.org/2000/svg" xmlns:xlink="http://www.w3.org/1999/xlink" version="1.1"><rect x="0" y="0" width="960" height="300" fill="#d9e5ec"></rect><path d="M0 149L16 171.2C32 193.3 64 237.7 96 240.8C128 244 160 206 192 187.5C224 169 256 170 288 177.8C320 185.7 352 200.3 384 204.7C416 209 448 203 480 192.8C512 182.7 544 168.3 576 158C608 147.7 640 141.3 672 160.7C704 180 736 225 768 246.2C800 267.3 832 264.7 864 242.3C896 220 928 178 944 157L960 136L960 301L944 301C928 301 896 301 864 301C832 301 800 301 768 301C736 301 704 301 672 301C640 301 608 301 576 301C544 301 512 301 480 301C448 301 416 301 384 301C352 301 320 301 288 301C256 301 224 301 192 301C160 301 128 301 96 301C64 301 32 301 16 301L0 301Z" fill="#4a5b63" stroke-linecap="round" stroke-linejoin="miter"></path></svg>