<svg id="visual" viewBox="0 0 960 540" width="960" height="540" xmlns="http://www.w3.org/2000/svg" xmlns:xlink="http://www.w3.org/1999/xlink" version="1.1"><rect x="0" y="0" width="960" height="540" fill="#d9e5ec"></rect><path d="M0 270L16 309.7C32 349.3 64 428.7 96 434.3C128 440 160 372 192 338.7C224 305.3 256 306.7 288 320.7C320 334.7 352 361.3 384 369.2C416 377 448 366 480 347.7C512 329.3 544 303.7 576 285C608 266.3 640 254.7 672 289.3C704 324 736 405 768 443.3C800 481.7 832 477.3 864 437.2C896 397 928 321 944 283L960 245L960 541L944 541C928 541 896 541 864 541C832 541 800 541 768 541C736 541 704 541 672 541C640 541 608 541 576 541C544 541 512 541 480 541C448 541 416 541 384 541C352 541 320 541 288 541C256 541 224 541 192 541C160 541 128 541 96 541C64 541 32 541 16 541L0 541Z" fill="#4a5b63" stroke-linecap="round" stroke-linejoin="miter"></path></svg>