<svg width="960" height="246" viewBox="0 0 960 246" fill="none" xmlns="http://www.w3.org/2000/svg">
<path d="M960 0H0V245H960V0Z" fill="white"/>
<path d="M0 65.3114L40 77.0114C80 88.6114 160 112.011 240 119.611C320 127.311 400 119.311 480 96.1114C560 73.0114 640 34.6114 720 22.6114C800 10.6114 880 25.0114 920 32.1114L960 39.3114V245.311H920C880 245.311 800 245.311 720 245.311C640 245.311 560 245.311 480 245.311C400 245.311 320 245.311 240 245.311C160 245.311 80 245.311 40 245.311H0V65.3114Z" fill="#00C8C8"/>
<path d="M0 218.311L40 214.811C80 211.311 160 204.311 240 182.611C320 161.011 400 124.611 480 121.011C560 117.311 640 146.311 720 149.111C800 152.011 880 128.611 920 117.011L960 105.311V245.311H920C880 245.311 800 245.311 720 245.311C640 245.311 560 245.311 480 245.311C400 245.311 320 245.311 240 245.311C160 245.311 80 245.311 40 245.311H0V218.311Z" fill="#080719"/>
</svg>
