<svg id="visual" viewBox="0 0 960 300" width="960" height="300" xmlns="http://www.w3.org/2000/svg" xmlns:xlink="http://www.w3.org/1999/xlink" version="1.1"><path d="M0 89L20 99.8C40 110.7 80 132.3 120 144.2C160 156 200 158 240 151.8C280 145.7 320 131.3 360 130.7C400 130 440 143 480 149.7C520 156.3 560 156.7 600 153.7C640 150.7 680 144.3 720 140.5C760 136.7 800 135.3 840 127.5C880 119.7 920 105.3 940 98.2L960 91L960 301L940 301C920 301 880 301 840 301C800 301 760 301 720 301C680 301 640 301 600 301C560 301 520 301 480 301C440 301 400 301 360 301C320 301 280 301 240 301C200 301 160 301 120 301C80 301 40 301 20 301L0 301Z" fill="#009292"></path><path d="M0 116L20 116.2C40 116.3 80 116.7 120 120C160 123.3 200 129.7 240 141.2C280 152.7 320 169.3 360 167.2C400 165 440 144 480 136.5C520 129 560 135 600 140.8C640 146.7 680 152.3 720 148.2C760 144 800 130 840 124.2C880 118.3 920 120.7 940 121.8L960 123L960 301L940 301C920 301 880 301 840 301C800 301 760 301 720 301C680 301 640 301 600 301C560 301 520 301 480 301C440 301 400 301 360 301C320 301 280 301 240 301C200 301 160 301 120 301C80 301 40 301 20 301L0 301Z" fill="#4fa8b7"></path><path d="M0 210L20 211.7C40 213.3 80 216.7 120 214.8C160 213 200 206 240 203.8C280 201.7 320 204.3 360 200.8C400 197.3 440 187.7 480 189.7C520 191.7 560 205.3 600 209.5C640 213.7 680 208.3 720 206C760 203.7 800 204.3 840 206.7C880 209 920 213 940 215L960 217L960 301L940 301C920 301 880 301 840 301C800 301 760 301 720 301C680 301 640 301 600 301C560 301 520 301 480 301C440 301 400 301 360 301C320 301 280 301 240 301C200 301 160 301 120 301C80 301 40 301 20 301L0 301Z" fill="#85bdd5"></path><path d="M0 241L20 232.8C40 224.7 80 208.3 120 205.3C160 202.3 200 212.7 240 221.5C280 230.3 320 237.7 360 234.8C400 232 440 219 480 212.5C520 206 560 206 600 204.7C640 203.3 680 200.7 720 205.8C760 211 800 224 840 227.7C880 231.3 920 225.7 940 222.8L960 220L960 301L940 301C920 301 880 301 840 301C800 301 760 301 720 301C680 301 640 301 600 301C560 301 520 301 480 301C440 301 400 301 360 301C320 301 280 301 240 301C200 301 160 301 120 301C80 301 40 301 20 301L0 301Z" fill="#b7d3eb"></path><path d="M0 275L20 275C40 275 80 275 120 268.5C160 262 200 249 240 248.2C280 247.3 320 258.7 360 259.8C400 261 440 252 480 246.3C520 240.7 560 238.3 600 239.5C640 240.7 680 245.3 720 249.5C760 253.7 800 257.3 840 254.8C880 252.3 920 243.7 940 239.3L960 235L960 301L940 301C920 301 880 301 840 301C800 301 760 301 720 301C680 301 640 301 600 301C560 301 520 301 480 301C440 301 400 301 360 301C320 301 280 301 240 301C200 301 160 301 120 301C80 301 40 301 20 301L0 301Z" fill="#e2eafc"></path></svg>