<?xml version="1.0" encoding="UTF-8"?>
<svg width="41px" height="41px" viewBox="0 0 41 41" version="1.1" xmlns="http://www.w3.org/2000/svg" xmlns:xlink="http://www.w3.org/1999/xlink">
    <title>logo-dec</title>
    <g id="Page-1" stroke="none" stroke-width="1" fill="none" fill-rule="evenodd">
        <g id="Artboard" transform="translate(-229.000000, -46.000000)" fill="#FFFFFF" fill-rule="nonzero">
            <path d="M249.76919,46.5 C260.809664,46.5125961 269.756594,55.4595267 269.76919,66.5 C269.76919,77.545695 260.814885,86.5 249.76919,86.5 C238.723495,86.5 229.76919,77.545695 229.76919,66.5 C229.76919,55.454305 238.723495,46.5 249.76919,46.5 Z M248.930143,76.0238095 L234.412047,76.0238095 C237.233804,80.606595 241.956308,83.688187 247.287416,84.425419 C252.618525,85.162651 258.0001,83.4783386 261.959666,79.8333333 L261.959666,79.8333333 L247.864428,79.8333333 C247.498197,79.8334708 247.164329,79.6235937 247.005684,79.2935065 C246.847039,78.9634194 246.891724,78.5716039 247.120619,78.2857143 L247.120619,78.2857143 L248.930143,76.0238095 Z M263.321036,54.478158 C257.390205,47.7833458 247.457927,46.4258464 239.948135,51.2836541 C232.438343,56.1414617 229.604183,65.7570987 233.278714,73.9114286 L233.278714,73.9114286 L243.306333,61.1495238 C243.493427,60.930636 243.766953,60.8046032 244.054905,60.8046032 C244.342856,60.8046032 244.616382,60.930636 244.803476,61.1495238 L244.803476,61.1495238 L252.748238,71.2561905 L254.743476,68.7619048 C254.930517,68.5463342 255.201882,68.4225136 255.487285,68.4225136 C255.772689,68.4225136 256.044054,68.5463342 256.231095,68.7619048 L256.231095,68.7619048 L263.673952,78.0657143 C269.401839,71.196465 269.251868,61.1729702 263.321036,54.478158 Z M254.531095,72.072381 L249.846333,77.9285714 L254.531095,77.9285714 L254.531095,72.072381 Z M243.102524,64.4914286 L235.538714,74.1190476 L243.102524,74.1190476 L243.102524,64.4914286 Z M255.483476,56.9761905 C258.112098,56.9793392 260.242232,59.1094732 260.245381,61.7380952 C260.245381,64.3680226 258.113403,66.5 255.483476,66.5 C252.853549,66.5 250.721571,64.3680226 250.721571,61.7380952 C250.721571,59.1081679 252.853549,56.9761905 255.483476,56.9761905 Z M245.007285,52.2142857 C247.111227,52.2142857 248.816809,53.9198676 248.816809,56.0238095 C248.816809,58.1277514 247.111227,59.8333333 245.007285,59.8333333 C242.903344,59.8333333 241.197762,58.1277514 241.197762,56.0238095 C241.197762,53.9198676 242.903344,52.2142857 245.007285,52.2142857 Z" id="logo-dec"></path>
        </g>
    </g>
</svg>