<?xml version="1.0" encoding="UTF-8"?>
<svg width="165px" height="41px" viewBox="0 0 165 41" version="1.1" xmlns="http://www.w3.org/2000/svg" xmlns:xlink="http://www.w3.org/1999/xlink">
    <title>logo-rari</title>
    <g id="Page-1" stroke="none" stroke-width="1" fill="none" fill-rule="evenodd">
        <g id="Artboard" transform="translate(-322.000000, -46.000000)" fill="#FFFFFF" fill-rule="nonzero">
            <g id="logo-rari" transform="translate(322.723038, 46.500000)">
                <path d="M65.8826306,31.91202 L71.7603994,31.91202 L66.8960906,22.2173175 C69.834975,21.1699425 71.6252381,18.7041225 71.6252381,15.46125 C71.6252381,11.2049175 68.5851075,7.962045 63.85596,7.962045 L54.36375,7.962045 L54.36375,31.91202 L59.7008737,31.91202 L59.7008737,22.99437 L61.5926325,22.99437 L65.8826306,31.91202 Z M59.7008737,18.4001344 L59.7008737,12.5899463 L62.8425,12.5899463 C65.0382469,12.5899463 66.2205337,13.7046525 66.2205337,15.495165 C66.2205337,17.1839325 65.0382469,18.4001344 62.8425,18.4001344 L59.7008737,18.4001344 Z M73.8940519,27.2841188 C73.8940519,29.95293 76.0222181,32.3850844 79.70424,32.3850844 C81.9336525,32.3850844 83.5550887,31.439205 84.4333875,30.0202613 C84.4333875,31.1688825 84.5685487,31.7768588 84.6022144,31.91202 L89.2301156,31.91202 C89.19645,31.7431931 89.0273737,30.6284869 89.0273737,29.3110388 L89.0273737,21.1026113 C89.0273737,17.6569969 87.0343687,14.6168663 81.5959987,14.6168663 C76.6641094,14.6168663 74.4344475,17.7921581 74.231955,20.1903975 L78.69078,21.1023619 C78.7920262,19.8527438 79.7718206,18.6365419 81.5620837,18.6365419 C83.18352,18.6365419 84.0279037,19.4809256 84.0279037,20.46072 C84.0279037,21.0350306 83.7239156,21.47418 82.8119512,21.6090919 L78.8596069,22.2173175 C76.0897987,22.6225519 73.8940519,24.3115688 73.8940519,27.2841188 L73.8940519,27.2841188 Z M80.9541075,28.6691475 C79.5354131,28.6691475 78.9611025,27.8247638 78.9611025,26.946465 C78.9611025,25.7641781 79.7718206,25.2574481 80.8526119,25.0886213 L84.0279037,24.5818913 L84.0279037,25.3250288 C84.0279037,27.92601 82.4740481,28.6691475 80.9541075,28.6691475 L80.9541075,28.6691475 Z M104.022293,15.1233469 C103.684389,15.0221006 103.177909,14.95452 102.671179,14.95452 C101.319816,14.95452 99.1916494,15.4949156 98.3136,17.3866744 L98.3136,15.1233469 L93.3477956,15.1233469 L93.3477956,31.91202 L98.4824269,31.91202 L98.4824269,24.5818913 C98.4824269,21.2377725 100.340271,20.0215706 102.400856,20.0215706 C102.907586,20.0215706 103.447982,20.0552363 104.022293,20.1903975 L104.022293,15.1233469 Z M112.271368,31.91202 L112.271368,15.1233469 L107.136986,15.1233469 L107.136986,31.91202 L112.271368,31.91202 Z M106.697837,9.988965 C106.697837,11.6440669 108.048951,12.99543 109.670387,12.99543 C111.359404,12.99543 112.710518,11.6440669 112.710518,9.988965 C112.710518,8.33361375 111.359404,6.9825 109.670387,6.9825 C108.048951,6.9825 106.697837,8.33361375 106.697837,9.988965 Z M121.735149,31.91202 L121.735149,30.0202613 C122.511953,31.3040438 124.234884,32.2835888 126.464297,32.2835888 C131.159779,32.2835888 134.469983,28.6015669 134.469983,23.467185 C134.469983,18.4338 131.531347,14.7181125 126.667039,14.7181125 C124.369796,14.7181125 122.511952,15.6639919 121.80273,16.7111175 L121.80273,7.455315 L116.769345,7.455315 L116.769345,31.91202 L121.735149,31.91202 L121.735149,31.91202 Z M129.335601,23.5008506 C129.335601,26.3045738 127.545338,27.6896025 125.552333,27.6896025 C123.559078,27.6896025 121.735149,26.2709081 121.735149,23.5008506 C121.735149,20.6634619 123.559078,19.3460138 125.552333,19.3460138 C127.545338,19.3460138 129.335601,20.6634619 129.335601,23.5008506 Z M142.917561,31.91202 L142.917561,7.455315 L137.782929,7.455315 L137.782929,31.91202 L142.917561,31.91202 Z M151.333219,21.5078456 C151.434465,20.2579781 152.515506,18.6702075 154.677338,18.6702075 C157.109492,18.6702075 157.987791,20.2243125 158.055371,21.5078456 L151.333219,21.5078456 Z M158.42694,25.8654244 C157.953876,27.1828725 156.90675,28.0611713 155.048906,28.0611713 C153.055901,28.0611713 151.333219,26.7100575 151.231723,24.8182988 L162.91968,24.8182988 C162.953346,24.7168031 163.020926,23.94 163.020926,23.2305281 C163.020926,17.8258238 159.811969,14.6168663 154.609757,14.6168663 C150.252178,14.6168663 146.232253,18.0622313 146.232253,23.467185 C146.232253,29.1082969 150.353424,32.41875 154.981326,32.41875 C159.237658,32.41875 161.90622,29.9865956 162.716938,27.0816263 L158.42694,25.8654244 L158.42694,25.8654244 Z" id="Shape"></path>
                <path d="M31.575,-2.13162821e-14 C36.1727705,-2.21608788e-14 39.9,3.72722946 39.9,8.325 L39.9,31.575 C39.9,36.1727705 36.1727705,39.9 31.575,39.9 L8.325,39.9 C3.72722946,39.9 9.4709977e-14,36.1727705 9.23705556e-14,31.575 L9.23705556e-14,8.325 C9.18074912e-14,3.72722946 3.72722946,-1.86953285e-14 8.325,-2.13162821e-14 L31.575,-2.13162821e-14 Z M23.810325,12.768 L10.1740013,12.768 L10.1740013,26.9387344 L15.9136163,26.9387344 L15.9136163,22.1292881 L22.7218031,22.1292881 C23.7709238,22.1292881 24.3843863,22.5449962 24.3843863,23.5741669 L24.3843863,26.9387344 L30.1240013,26.9387344 L30.1240013,23.3961131 C30.1240013,21.4664494 29.0354794,20.2490006 27.5312494,19.8038662 C28.7880994,19.477185 29.9062969,18.5370412 29.9062969,16.6470281 C29.9062969,13.500165 27.2344931,12.768 23.810325,12.768 Z M22.820805,16.9240837 C23.57292,16.9240837 24.0280294,17.0230856 24.0280294,17.6168475 C24.0280294,18.2106094 23.57292,18.3096112 22.8210544,18.3096112 L15.9136163,18.3096112 L15.9136163,16.9240837 L22.820805,16.9240837 Z" id="Combined-Shape"></path>
            </g>
        </g>
    </g>
</svg>