<?xml version="1.0" encoding="UTF-8"?>
<svg width="110px" height="23px" viewBox="0 0 110 23" version="1.1" xmlns="http://www.w3.org/2000/svg" xmlns:xlink="http://www.w3.org/1999/xlink">
    <title>logo-topshot</title>
    <g id="Page-1" stroke="none" stroke-width="1" fill="none" fill-rule="evenodd">
        <g id="Artboard" transform="translate(-1282.000000, -55.000000)" fill="#FFFFFF" fill-rule="nonzero">
            <g id="logo-topshot" transform="translate(1282.057756, 55.500000)">
                <polygon id="Path" points="14.450921 4.20143806 10.2797142 4.20143806 4.8282499 21.8220274 0.238727202 21.8220274 5.61918327 4.20143806 1.29541418 4.20143806 2.54333128 0.0632746696 15.7459426 0.0632746696"></polygon>
                <path d="M17.6315278,0.0632746696 L31.0176356,0.0632746696 L23.9259513,21.8220274 L10.7873177,21.8220274 L17.6315278,0.0632746696 Z M16.6753772,17.6986281 L20.6919126,17.6986281 L25.0388824,4.20003196 L20.9731334,4.20003196 L16.6753772,17.6986281 Z" id="Shape"></path>
                <path d="M30.4840193,21.8220274 L25.9247278,21.8220274 L32.0511219,3.1327992 L36.414965,0.0632746696 L45.9223356,0.0632746696 L40.4209546,16.2995549 L32.3161725,16.2995549 L30.4840193,21.8220274 Z M37.2333174,12.1311603 L39.8901504,4.20143806 L36.3305987,4.20143806 L33.6983725,12.1311603 L37.2333174,12.1311603 Z" id="Shape"></path>
                <polygon id="Path" points="55.1660618 21.8220274 43.203634 21.8220274 45.5237052 15.0502317 50.1104157 15.0502317 49.1915269 17.6986281 52.0304504 17.6986281 53.2432149 14.2375037 47.8297154 8.77549362 50.8176859 0.0632746696 62.716839 0.0632746696 60.4312173 6.53135201 56.2375128 6.53135201 57.0481317 4.21128079 54.0250086 4.21128079 53.0407359 7.05512566 58.4626721 12.5023717"></polygon>
                <polygon id="Path" points="66.3002945 8.99906412 70.2570705 8.99906412 73.4960305 0.0632746696 78.1417973 0.0632746696 70.1684859 21.8220274 65.6091945 21.8220274 68.7616791 13.1245726 64.8196672 13.1245726 61.6967107 21.8220274 57.1374193 21.8220274 64.8632564 0.0632746696 69.5090233 0.0632746696"></polygon>
                <path d="M80.1201854,0.0632746696 L93.5062932,0.0632746696 L85.2461366,21.8220274 L72.1096122,21.8220274 L80.1201854,0.0632746696 Z M78.2219453,17.6986281 L82.2391837,17.6986281 L87.3095939,4.20003196 L83.245251,4.20003196 L78.2219453,17.6986281 Z" id="Shape"></path>
                <polygon id="Path" points="107.123002 4.20143806 102.948983 4.20143806 96.0921181 21.8220274 91.5025954 21.8220274 98.2884521 4.20143806 93.9646831 4.20143806 95.5458467 0.0632746696 108.747755 0.0632746696"></polygon>
            </g>
        </g>
    </g>
</svg>