<?xml version="1.0" encoding="UTF-8"?>
<svg width="135px" height="16px" viewBox="0 0 135 16" version="1.1" xmlns="http://www.w3.org/2000/svg" xmlns:xlink="http://www.w3.org/1999/xlink">
    <title>logo-punks</title>
    <g id="Page-1" stroke="none" stroke-width="1" fill="none" fill-rule="evenodd">
        <g id="Artboard" transform="translate(-39.000000, -57.000000)" fill="#FFFFFF" fill-rule="nonzero">
            <path d="M47.6578424,72.5 L47.6578424,70.875 L49.2828424,70.875 L49.2828424,67.625 L46.0328424,67.625 L46.0328424,69.25 L42.7828424,69.25 L42.7828424,61.125 L46.0328424,61.125 L46.0328424,62.75 L49.2828424,62.75 L49.2828424,59.5 L47.6578424,59.5 L47.6578424,57.875 L41.1578424,57.875 L41.1578424,59.5 L39.5328424,59.5 L39.5328424,70.875 L41.1578424,70.875 L41.1578424,72.5 L47.6578424,72.5 Z M55.1978424,72.5 L55.1978424,67.625 L58.4478424,67.625 L58.4478424,72.5 L61.6978424,72.5 L61.6978424,66 L60.0728424,66 L60.0728424,64.375 L61.6978424,64.375 L61.6978424,59.5 L60.0728424,59.5 L60.0728424,57.875 L51.9478424,57.875 L51.9478424,72.5 L55.1978424,72.5 Z M58.4478424,64.375 L55.1978424,64.375 L55.1978424,61.125 L58.4478424,61.125 L58.4478424,64.375 Z M70.8628424,72.5 L70.8628424,67.625 L72.4878424,67.625 L72.4878424,66 L74.1128424,66 L74.1128424,57.875 L70.8628424,57.875 L70.8628424,64.375 L67.6128424,64.375 L67.6128424,57.875 L64.3628424,57.875 L64.3628424,66 L65.9878424,66 L65.9878424,67.625 L67.6128424,67.625 L67.6128424,72.5 L70.8628424,72.5 Z M80.0278424,72.5 L80.0278424,67.625 L84.9028424,67.625 L84.9028424,66 L86.5278424,66 L86.5278424,59.5 L84.9028424,59.5 L84.9028424,57.875 L76.7778424,57.875 L76.7778424,72.5 L80.0278424,72.5 Z M83.2778424,64.375 L80.0278424,64.375 L80.0278424,61.125 L83.2778424,61.125 L83.2778424,64.375 Z M95.6928424,72.5 L95.6928424,61.125 L98.9428424,61.125 L98.9428424,57.875 L89.1928424,57.875 L89.1928424,61.125 L92.4428424,61.125 L92.4428424,72.5 L95.6928424,72.5 Z M109.732842,72.5 L109.732842,70.875 L111.357842,70.875 L111.357842,59.5 L109.732842,59.5 L109.732842,57.875 L103.232842,57.875 L103.232842,59.5 L101.607842,59.5 L101.607842,70.875 L103.232842,70.875 L103.232842,72.5 L109.732842,72.5 Z M108.107842,69.25 L104.857842,69.25 L104.857842,61.125 L108.107842,61.125 L108.107842,69.25 Z M117.272842,72.5 L117.272842,67.625 L122.147842,67.625 L122.147842,66 L123.772842,66 L123.772842,59.5 L122.147842,59.5 L122.147842,57.875 L114.022842,57.875 L114.022842,72.5 L117.272842,72.5 Z M120.522842,64.375 L117.272842,64.375 L117.272842,61.125 L120.522842,61.125 L120.522842,64.375 Z M134.562842,72.5 L134.562842,70.875 L136.187842,70.875 L136.187842,57.875 L132.937842,57.875 L132.937842,69.25 L129.687842,69.25 L129.687842,57.875 L126.437842,57.875 L126.437842,70.875 L128.062842,70.875 L128.062842,72.5 L134.562842,72.5 Z M142.102842,72.5 L142.102842,67.625 L143.727842,67.625 L143.727842,69.25 L145.352842,69.25 L145.352842,72.5 L148.602842,72.5 L148.602842,57.875 L145.352842,57.875 L145.352842,62.75 L143.727842,62.75 L143.727842,61.125 L142.102842,61.125 L142.102842,57.875 L138.852842,57.875 L138.852842,72.5 L142.102842,72.5 Z M154.517842,72.5 L154.517842,67.625 L156.142842,67.625 L156.142842,69.25 L157.767842,69.25 L157.767842,72.5 L161.017842,72.5 L161.017842,67.625 L159.392842,67.625 L159.392842,66 L157.767842,66 L157.767842,64.375 L159.392842,64.375 L159.392842,62.75 L161.017842,62.75 L161.017842,57.875 L157.767842,57.875 L157.767842,61.125 L156.142842,61.125 L156.142842,62.75 L154.517842,62.75 L154.517842,57.875 L151.267842,57.875 L151.267842,72.5 L154.517842,72.5 Z M171.807842,72.5 L171.807842,70.875 L173.432842,70.875 L173.432842,64.375 L171.807842,64.375 L171.807842,62.75 L173.432842,62.75 L173.432842,59.5 L171.807842,59.5 L171.807842,57.875 L165.307842,57.875 L165.307842,59.5 L163.682842,59.5 L163.682842,64.375 L165.307842,64.375 L165.307842,66 L170.182842,66 L170.182842,69.25 L166.932842,69.25 L166.932842,67.625 L163.682842,67.625 L163.682842,70.875 L165.307842,70.875 L165.307842,72.5 L171.807842,72.5 Z M170.182842,62.75 L166.932842,62.75 L166.932842,61.125 L170.182842,61.125 L170.182842,62.75 Z" id="logo-punks"></path>
        </g>
    </g>
</svg>