<?xml version="1.0" encoding="UTF-8"?>
<svg width="164px" height="39px" viewBox="0 0 164 39" version="1.1" xmlns="http://www.w3.org/2000/svg" xmlns:xlink="http://www.w3.org/1999/xlink">
    <title>logo-opensea</title>
    <g id="Page-1" stroke="none" stroke-width="1" fill="none" fill-rule="evenodd">
        <g id="logo-opensea" transform="translate(0.000000, 0.620172)" fill="#FFFFFF" fill-rule="nonzero">
            <path d="M18.6498856,0 C28.9515229,0 37.2997712,8.35041167 37.2997712,18.6498856 C37.2997712,28.9493595 28.9493595,37.2997712 18.6498856,37.2997712 C8.35041167,37.2997712 0,28.9493595 0,18.6498856 C0,8.35041167 8.35041167,0 18.6498856,0 Z M19.2337762,7.45995423 C18.6512657,7.45995423 18.1799085,7.93705561 18.1799085,8.5253103 L18.1799085,8.5253103 L18.1799085,9.74393112 L18.0706947,9.71330801 L17.7736767,9.62897323 L17.5035144,9.55426178 C17.5016121,9.55426178 17.4996725,9.5523222 17.495868,9.5523222 L17.495868,9.5523222 L17.4901238,9.5523222 L15.4398673,8.99666751 C15.3498256,8.97175126 15.2731746,9.06947666 15.3191652,9.15187185 L15.3191652,9.15187185 L15.6468064,9.75735904 C15.6774668,9.83401007 15.7215551,9.9106611 15.759862,9.99305629 C15.8135364,10.1003304 15.8671735,10.213386 15.9189082,10.3264416 C15.9648989,10.4260693 16.0108895,10.5237947 16.0645265,10.6311062 C16.1698984,10.8668034 16.2848936,11.1158913 16.3979119,11.3898954 C16.4745629,11.5719183 16.551214,11.7539412 16.6182789,11.9436478 C16.8022414,12.4207492 16.9765805,12.9304133 17.1279803,13.4535426 C17.1816174,13.6202352 17.2199243,13.7792442 17.2659149,13.9459741 L17.2659149,13.9459741 L17.2869892,14.0379181 C17.3483101,14.2812991 17.4019844,14.5227032 17.4402913,14.7660469 C17.4709517,14.9327396 17.4996725,15.0917858 17.5150027,15.2527343 C17.5380167,15.4347572 17.5609934,15.6168174 17.5686771,15.7988403 C17.5840073,15.965533 17.5916538,16.1399094 17.5916538,16.3066021 C17.5916538,16.7319686 17.5533469,17.142005 17.463268,17.5290648 C17.4326076,17.6421204 17.4019844,17.7628224 17.3636403,17.8778176 C17.3253334,18.0138499 17.271659,18.1498822 17.2199243,18.2955005 C17.1892638,18.3778957 17.1586407,18.4622304 17.1202966,18.5446256 C16.9305899,19.0006526 16.69493,19.4547773 16.4515863,19.8801439 C16.095187,20.5105474 15.7368854,21.0642998 15.4858579,21.4206991 C15.4513929,21.4724339 15.4187929,21.5183872 15.3900721,21.5624755 C15.3115188,21.6735915 15.3919744,21.8307355 15.5280066,21.8307355 L15.5280066,21.8307355 L18.1799085,21.8307355 L18.1799085,23.925043 L15.4973462,23.925043 C14.7769011,23.925043 14.1100931,23.5169089 13.7881961,22.8634915 C13.6215034,22.5358503 13.5563407,22.1756092 13.5946849,21.8230517 C13.6042336,21.7176799 13.5256803,21.6180522 13.4184062,21.6180522 L13.4184062,21.6180522 L7.99964462,21.6180522 C7.90766339,21.6180522 7.83295195,21.6927636 7.83295195,21.7847449 L7.83295195,21.7847449 L7.83295195,21.8958609 C7.83295195,25.3525426 10.6247279,28.1538673 14.0698467,28.1538673 L14.0698467,28.1538673 L23.7902416,28.1538673 C25.5189549,28.1538673 26.5388507,26.6592772 27.5073077,25.1123601 L27.759214,24.7085778 C28.010818,24.3055051 28.2628115,23.9074062 28.526865,23.5398856 C29.0614453,22.7964265 30.3471684,22.2062696 30.7227025,22.0453211 C30.7840233,22.0185025 30.8261721,21.9571817 30.8261721,21.8882144 L30.8261721,21.8882144 L30.8261721,20.6868261 C30.8261721,20.5756728 30.7188979,20.4952172 30.6134888,20.5258776 L30.6134888,20.5258776 L24.9399325,22.1660604 C24.9092721,22.1737069 24.8824162,22.1909394 24.8613419,22.2139533 C24.2386222,22.9018357 23.7116883,23.3578627 23.5909863,23.4632346 C23.2384288,23.7621549 22.8015366,23.925043 22.3416677,23.925043 L22.3416677,23.925043 L20.2876066,23.925043 L20.2876066,21.8307355 L21.920143,21.8307355 C21.9622918,21.8307355 22.0025382,21.8154053 22.0331986,21.7885867 L22.0331986,21.7885867 L22.2439423,21.5950382 C22.3340213,21.512643 22.4413327,21.4130153 22.5696812,21.2846295 C22.6463323,21.2079785 22.730667,21.1255833 22.8130249,21.0336394 C22.8973597,20.9512442 22.9797549,20.8592629 23.0563686,20.7692213 C23.1847545,20.6312494 23.3073961,20.4875334 23.4357819,20.3361709 C23.5277632,20.2365432 23.6120606,20.1234876 23.6944558,20.010432 C23.7864371,19.9031206 23.8764787,19.7824185 23.9607762,19.6674606 C24.022097,19.5773817 24.0910643,19.4854005 24.1581293,19.3877124 C24.2194501,19.2957311 24.2807709,19.1980057 24.3325057,19.1060245 L24.4853008,18.851821 C24.5818215,18.679369 24.6678431,18.5018055 24.7444817,18.3242586 C24.8038629,18.1958728 24.8498535,18.0598405 24.8958442,17.9295524 C24.9418348,17.7934828 24.9801416,17.6651343 25.0088998,17.5290648 C25.077867,17.20907 25.0931973,16.8910149 25.0625368,16.5729224 C25.0548904,16.4732947 25.0472066,16.3755693 25.02423,16.2836254 L25.02423,16.2836254 L25.02423,16.2682952 C25.0165462,16.2031325 25.001216,16.1303233 24.9801416,16.0632584 C24.9111744,15.7528497 24.8038629,15.442441 24.6678307,15.1377764 C24.62184,15.0247208 24.568203,14.9097629 24.5164682,14.8043911 C24.3938265,14.5763776 24.2654407,14.3483268 24.1198224,14.127997 C24.0680876,14.0456018 24.0067668,13.9613043 23.9531297,13.8789092 C23.8400741,13.7045327 23.709786,13.53784 23.5890467,13.3768915 C23.4971027,13.2561522 23.3916936,13.1354501 23.2920659,13.0128085 C23.1924382,12.8921064 23.0947128,12.7771485 22.9950851,12.6640929 C22.6386858,12.261703 22.265054,11.8976572 21.9316314,11.5872485 C21.8703105,11.5259277 21.8032455,11.4646069 21.7342783,11.4052256 C21.4756043,11.1695284 21.2399071,10.9644915 21.042554,10.8054826 C20.9429263,10.7288316 20.8605311,10.6540828 20.7838801,10.5927993 C20.6861547,10.5199529 20.609541,10.4605716 20.5558666,10.4203252 C20.5405364,10.4088368 20.5233039,10.4011904 20.5060714,10.3954089 L20.5060714,10.3954089 L20.2876066,10.3341254 L20.2876066,8.5253103 C20.2876066,8.23023181 20.1688069,7.96581373 19.9791375,7.77226522 C19.7894309,7.578754 19.5250128,7.45995423 19.2337762,7.45995423 Z M14.4243437,11.581467 C14.3707066,11.460765 14.204014,11.4492767 14.1331071,11.5603927 L14.1331071,11.5603927 L9.28152586,19.1500755 L9.20107025,19.276559 C9.13016339,19.3857728 9.2087167,19.5313911 9.34284668,19.5313911 L9.34284668,19.5313911 L14.3323625,19.5313911 C14.3879391,19.5313911 14.4396739,19.5045725 14.4703343,19.4585819 C14.535497,19.3589542 14.5968178,19.2554847 14.6523572,19.1500755 C15.0835053,18.4257886 15.4667231,17.6421204 15.6065973,17.0634517 C15.9342384,15.6570265 15.2348677,13.3979286 14.4243437,11.581467 Z" id="Combined-Shape"></path>
            <path d="M55.4733387,27.6005625 C53.787389,27.6005625 52.2375835,27.2227531 50.8242952,26.4671343 C49.4277918,25.7114783 48.3121556,24.6601842 47.4777597,23.3132149 C46.6605217,21.9497963 46.2517162,20.4221096 46.2517162,18.730192 C46.2517162,17.0382371 46.6605217,15.5187563 47.4777597,14.171787 C48.3121556,12.8248176 49.4277918,11.7734863 50.8242952,11.0178675 C52.2375835,10.2622487 53.787389,9.88443936 55.4733387,9.88443936 C57.1592883,9.88443936 58.7005149,10.2622487 60.0970183,11.0178675 C61.5106796,11.7734863 62.6173638,12.8248176 63.4178169,14.171787 C64.2354279,15.5187563 64.6438604,17.0382371 64.6438604,18.730192 C64.6438604,20.4221096 64.2354279,21.9497963 63.4178169,23.3132149 C62.6005789,24.6601842 61.4935217,25.7114783 60.0970183,26.4671343 C58.7005149,27.2227531 57.1592883,27.6005625 55.4733387,27.6005625 Z M55.4733387,23.7567092 C56.9037849,23.7567092 58.0447849,23.2967657 58.8963387,22.3768787 C59.7650503,21.4569918 60.1992197,20.2414295 60.1992197,18.730192 C60.1992197,17.2025053 59.7650503,15.986943 58.8963387,15.083468 C58.0447849,14.163581 56.9037849,13.7036375 55.4733387,13.7036375 C54.0257346,13.7036375 52.8679497,14.1553751 51.999238,15.0588128 C51.1476842,15.9622879 50.7220938,17.1860561 50.7220938,18.730192 C50.7220938,20.2578414 51.1476842,21.4816469 51.999238,22.4015339 C52.8679497,23.3050089 54.0257346,23.7567092 55.4733387,23.7567092 Z" id="Shape"></path>
            <path d="M71.4424897,15.6255455 C71.8680801,14.984922 72.4555515,14.4674622 73.2049039,14.073241 C73.9542563,13.6789824 74.8311739,13.4818531 75.8360297,13.4818531 C77.0109725,13.4818531 78.075508,13.7693224 79.0292632,14.3442611 C79.9826453,14.9191998 80.7319977,15.7405407 81.2769474,16.8082467 C81.8390549,17.8759899 82.1199222,19.1162073 82.1199222,20.5288989 C82.1199222,21.9415904 81.8390549,23.1900137 81.2769474,24.2741689 C80.7319977,25.3419121 79.9826453,26.1714217 79.0292632,26.7628096 C78.075508,27.3377483 77.0109725,27.6251803 75.8360297,27.6251803 C74.8483318,27.6251803 73.9714142,27.4280883 73.2049039,27.0338297 C72.4555515,26.6396085 71.8680801,26.130392 71.4424897,25.506143 L71.4424897,31.5183066 L67.0743135,31.5183066 L67.0743135,13.6789824 L71.4424897,13.6789824 L71.4424897,15.6255455 Z M77.6752815,20.5288989 C77.6752815,19.4776048 77.3686773,18.6562638 76.7554691,18.0649133 C76.1594188,17.4571135 75.4186453,17.1532323 74.5331487,17.1532323 C73.6648101,17.1532323 72.9240366,17.4571135 72.3108284,18.0649133 C71.714778,18.6726757 71.4167529,19.5022227 71.4167529,20.5535167 C71.4167529,21.6048481 71.714778,22.434395 72.3108284,23.0421574 C72.9240366,23.6499572 73.6648101,23.9538384 74.5331487,23.9538384 C75.4018604,23.9538384 76.1426339,23.6499572 76.7554691,23.0421574 C77.3686773,22.4179458 77.6752815,21.5801929 77.6752815,20.5288989 Z" id="Shape"></path>
            <path d="M97.8481167,20.3317696 C97.8481167,20.7260281 97.8227529,21.1366613 97.7716522,21.563781 L87.8857208,21.563781 C87.9539794,22.4179458 88.2348467,23.0750185 88.7286957,23.534962 C89.2397025,23.9784936 89.8611167,24.2002407 90.5936842,24.2002407 C91.6835835,24.2002407 92.4411419,23.7567092 92.8671053,22.8696833 L97.5161487,22.8696833 C97.2778032,23.7731584 96.8436339,24.5862561 96.2132677,25.309051 C95.6004325,26.0318087 94.8253432,26.5985414 93.888746,27.0092119 C92.9521487,27.4198451 91.9047712,27.6251803 90.7469863,27.6251803 C89.3504828,27.6251803 88.1072815,27.3377483 87.0173822,26.7628096 C85.9274828,26.1878709 85.0759291,25.36653 84.4627208,24.2987867 C83.8498856,23.2310808 83.5432815,21.9826574 83.5432815,20.5535167 C83.5432815,19.1244133 83.8413066,17.8759899 84.437357,16.8082467 C85.0501922,15.7405407 85.901746,14.9191998 86.9916453,14.3442611 C88.0815446,13.7693224 89.3333249,13.4818531 90.7469863,13.4818531 C92.1263318,13.4818531 93.3523753,13.7611165 94.4251167,14.3196432 C95.4982311,14.8781327 96.332627,15.6748185 96.9286773,16.7097007 C97.5418856,17.7445828 97.8481167,18.9519391 97.8481167,20.3317696 Z M93.3781121,19.2229593 C93.3781121,18.5002016 93.1226087,17.9252629 92.6116018,17.4981805 C92.100595,17.0710982 91.4620229,16.857557 90.6958856,16.857557 C89.9633181,16.857557 89.3419039,17.0628922 88.830897,17.4735254 C88.3370481,17.8841959 88.0304439,18.4673405 87.9114577,19.2229593 L93.3781121,19.2229593 Z" id="Shape"></path>
            <path d="M108.838121,13.5311634 C110.506913,13.5311634 111.835158,14.0567918 112.822856,15.1081231 C113.827712,16.142968 114.33014,17.5721087 114.33014,19.3954707 L114.33014,27.4280883 L109.987327,27.4280883 L109.987327,19.9621661 C109.987327,19.0422792 109.740403,18.3277275 109.246554,17.818511 C108.752705,17.3092572 108.088769,17.054649 107.254373,17.054649 C106.419604,17.054649 105.755668,17.3092572 105.261819,17.818511 C104.76797,18.3277275 104.521046,19.0422792 104.521046,19.9621661 L104.521046,27.4280883 L100.15287,27.4280883 L100.15287,13.6789824 L104.521046,13.6789824 L104.521046,15.5023444 C104.963794,14.8945446 105.559844,14.4181892 106.309197,14.073241 C107.058176,13.7118435 107.901151,13.5311634 108.838121,13.5311634 Z" id="Path"></path>
            <path d="M123.85389,27.6005625 C122.542803,27.6005625 121.367487,27.3952272 120.328689,26.9845568 C119.28989,26.5738863 118.455494,25.9661238 117.825501,25.1611947 C117.212293,24.356303 116.888531,23.387143 116.854588,22.2536776 L121.503632,22.2536776 C121.57189,22.8943384 121.801657,23.387143 122.193677,23.7320913 C122.585325,24.0606277 123.095959,24.2248959 123.726325,24.2248959 C124.373476,24.2248959 124.88411,24.0852455 125.258973,23.8060195 C125.633462,23.5103442 125.82108,23.1078796 125.82108,22.5986632 C125.82108,22.1715435 125.667778,21.8183892 125.361174,21.5391259 C125.071728,21.2598625 124.705444,21.0299094 124.262696,20.8492293 C123.836732,20.6685119 123.223897,20.4631767 122.423444,20.2332236 C121.265286,19.888238 120.32011,19.5432897 119.587915,19.1983414 C118.855721,18.8533931 118.225728,18.3441394 117.697563,17.6706547 C117.169771,16.99717 116.905689,16.1183501 116.905689,15.034195 C116.905689,13.4243741 117.510318,12.1677449 118.719577,11.2642698 C119.928462,10.3443828 121.503632,9.88443936 123.445085,9.88443936 C125.420854,9.88443936 127.012808,10.3443828 128.222066,11.2642698 C129.431325,12.1677449 130.078476,13.4325801 130.163519,15.0588128 L125.437638,15.0588128 C125.403696,14.5003233 125.190714,14.0649977 124.799066,13.7529105 C124.407419,13.4243741 123.904991,13.2601059 123.291783,13.2601059 C122.763991,13.2601059 122.3384,13.399719 122.014638,13.6789824 C121.691249,13.9417966 121.529368,14.3278492 121.529368,14.8370657 C121.529368,15.3955551 121.801657,15.8308808 122.346979,16.142968 C122.891929,16.4550924 123.74311,16.7918348 124.901268,17.1532323 C126.059426,17.5310416 126.996023,17.8924018 127.711059,18.2373874 C128.443627,18.5823357 129.07362,19.0833462 129.601412,19.740419 C130.129577,20.3974918 130.393286,21.2434506 130.393286,22.2783327 C130.393286,23.2639419 130.129577,24.1591737 129.601412,24.9640654 C129.090778,25.7689945 128.341426,26.4096181 127.353728,26.8860108 C126.36603,27.3623661 125.199293,27.6005625 123.85389,27.6005625 Z" id="Path"></path>
            <path d="M146.51835,20.3317696 C146.51835,20.7260281 146.492613,21.1366613 146.441513,21.563781 L136.555581,21.563781 C136.62384,22.4179458 136.904707,23.0750185 137.398556,23.534962 C137.909563,23.9784936 138.53135,24.2002407 139.263545,24.2002407 C140.353444,24.2002407 141.111375,23.7567092 141.536966,22.8696833 L146.186009,22.8696833 C145.947664,23.7731584 145.513494,24.5862561 144.883501,25.309051 C144.270293,26.0318087 143.495577,26.5985414 142.558606,27.0092119 C141.622009,27.4198451 140.574632,27.6251803 139.416847,27.6251803 C138.020343,27.6251803 136.777142,27.3377483 135.687243,26.7628096 C134.597343,26.1878709 133.745789,25.36653 133.132581,24.2987867 C132.519746,23.2310808 132.213142,21.9826574 132.213142,20.5535167 C132.213142,19.1244133 132.511167,17.8759899 133.107217,16.8082467 C133.720053,15.7405407 134.571606,14.9191998 135.661506,14.3442611 C136.751405,13.7693224 138.003185,13.4818531 139.416847,13.4818531 C140.796192,13.4818531 142.022236,13.7611165 143.09535,14.3196432 C144.168092,14.8781327 145.002487,15.6748185 145.598538,16.7097007 C146.211746,17.7445828 146.51835,18.9519391 146.51835,20.3317696 Z M142.047973,19.2229593 C142.047973,18.5002016 141.792469,17.9252629 141.281462,17.4981805 C140.770455,17.0710982 140.131883,16.857557 139.365746,16.857557 C138.633551,16.857557 138.011764,17.0628922 137.500757,17.4735254 C137.006908,17.8841959 136.700304,18.4673405 136.581318,19.2229593 L142.047973,19.2229593 Z" id="Shape"></path>
            <path d="M147.954018,20.5288989 C147.954018,19.1162073 148.22668,17.8759899 148.771629,16.8082467 C149.333364,15.7405407 150.091295,14.9191998 151.04505,14.3442611 C151.998805,13.7693224 153.062968,13.4818531 154.238284,13.4818531 C155.242767,13.4818531 156.120057,13.6789824 156.86941,14.073241 C157.635547,14.4674622 158.223018,14.984922 158.631824,15.6255455 L158.631824,13.6789824 L163,13.6789824 L163,27.4280883 L158.631824,27.4280883 L158.631824,25.4815252 C158.206233,26.1221487 157.610183,26.6396085 156.843673,27.0338297 C156.09432,27.4280883 155.217403,27.6251803 154.212547,27.6251803 C153.054389,27.6251803 151.998805,27.3377483 151.04505,26.7628096 C150.091295,26.1714217 149.333364,25.3419121 148.771629,24.2741689 C148.22668,23.1900137 147.954018,21.9415904 147.954018,20.5288989 Z M158.631824,20.5535167 C158.631824,19.5022227 158.32522,18.6726757 157.712384,18.0649133 C157.116334,17.4571135 156.383767,17.1532323 155.515428,17.1532323 C154.646716,17.1532323 153.905943,17.4571135 153.293108,18.0649133 C152.697057,18.6562638 152.399032,19.4776048 152.399032,20.5288989 C152.399032,21.5801929 152.697057,22.4179458 153.293108,23.0421574 C153.905943,23.6499572 154.646716,23.9538384 155.515428,23.9538384 C156.383767,23.9538384 157.116334,23.6499572 157.712384,23.0421574 C158.32522,22.434395 158.631824,21.6048481 158.631824,20.5535167 Z" id="Shape"></path>
        </g>
    </g>
</svg>