<?xml version="1.0" encoding="UTF-8"?>
<svg width="133px" height="41px" viewBox="0 0 133 41" version="1.1" xmlns="http://www.w3.org/2000/svg" xmlns:xlink="http://www.w3.org/1999/xlink">
    <title>logo-sandbox</title>
    <g id="Page-1" stroke="none" stroke-width="1" fill="none" fill-rule="evenodd">
        <g id="Artboard" transform="translate(-917.000000, -46.000000)" fill="#FFFFFF" fill-rule="nonzero">
            <g id="logo-sandbox" transform="translate(917.578385, 46.500000)">
                <polygon id="Path" points="67.2623701 5.40349272 69.2382536 5.40349272 69.2382536 4.90952183 68.7442827 4.41555094 66.2744283 4.41555094 65.7804574 4.90952183 65.7804574 8.86128898 66.2744283 9.35525988 68.7442827 9.35525988 69.2382536 8.86128898 69.2382536 8.36731809 67.2623701 8.36731809 67.2623701 7.3793763 69.2382536 7.3793763 69.2382536 6.39143451 67.2623701 6.39143451"></polygon>
                <rect id="Rectangle" x="66.1125156" y="0" width="2.79367983" height="2.79367983"></rect>
                <polygon id="Path" points="63.4752599 4.41555094 63.4752599 6.39143451 61.9933472 6.39143451 61.9933472 4.41555094 61.0054054 4.41555094 60.5114345 4.90952183 60.5114345 8.86128898 61.0054054 9.35525988 61.9933472 9.35525988 61.9933472 7.3793763 63.4752599 7.3793763 63.4752599 9.35525988 64.4632017 9.35525988 64.9571726 8.86128898 64.9571726 4.90952183 64.4632017 4.41555094"></polygon>
                <polygon id="Path" points="55.7363825 4.41555094 55.2424116 4.90952183 55.2424116 5.40349272 56.7243243 5.40349272 56.7243243 8.86128898 57.2182952 9.35525988 57.7122661 9.35525988 58.206237 8.86128898 58.206237 5.40349272 59.6881497 5.40349272 59.6881497 4.90952183 59.1941788 4.41555094"></polygon>
                <polygon id="Path" points="1.97588358 11.0567152 0 13.0325988 0 20.9361331 1.97588358 22.9120166 9.87941788 22.9120166 9.87941788 26.8637838 5.92765073 26.8637838 5.92765073 24.8879002 0 24.8879002 0 28.8396674 1.97588358 30.8155509 13.831185 30.8155509 15.8070686 28.8396674 15.8070686 20.9361331 13.831185 18.9602495 5.92765073 18.9602495 5.92765073 15.0084823 9.87941788 15.0084823 9.87941788 16.9843659 15.8070686 16.9843659 15.8070686 13.0325988 13.831185 11.0567152"></polygon>
                <path d="M55.3247401,11.0567152 L55.3247401,30.8155509 L69.1559252,30.8155509 L71.1318087,28.8396674 L71.1318087,13.0325988 L69.1559252,11.0567152 L55.3247401,11.0567152 Z M61.2523909,15.0084823 L65.204158,15.0084823 L65.204158,26.8637838 L61.2523909,26.8637838 L61.2523909,15.0084823 Z" id="Shape"></path>
                <path d="M73.1076923,11.0567152 L73.1076923,30.8155509 L86.9388773,30.8155509 L88.9147609,28.8396674 L88.9147609,22.9120166 L86.9388773,20.9361331 L88.9147609,18.9602495 L88.9147609,13.0325988 L86.9388773,11.0567152 L73.1076923,11.0567152 Z M79.035343,22.9120166 L82.9871102,22.9120166 L82.9871102,26.8637838 L79.035343,26.8637838 L79.035343,22.9120166 M79.035343,18.9602495 L79.035343,15.0084823 L82.9871102,15.0084823 L82.9871102,18.9602495 L79.035343,18.9602495 Z" id="Shape"></path>
                <path d="M92.8665281,11.0567152 L90.8906445,13.0325988 L90.8906445,28.8396674 L92.8665281,30.8155509 L104.72183,30.8155509 L106.697713,28.8396674 L106.697713,13.0325988 L104.72183,11.0567152 L92.8665281,11.0567152 Z M96.8182952,15.0084823 L100.770062,15.0084823 L100.770062,26.8637838 L96.8182952,26.8637838 L96.8182952,15.0084823 Z" id="Shape"></path>
                <polygon id="Rectangle" transform="translate(128.209705, 20.937475) rotate(-45.000000) translate(-128.209705, -20.937475) " points="125.571077 18.2988466 130.848333 18.2988466 130.848333 23.5761024 125.571077 23.5761024"></polygon>
                <polygon id="Rectangle" transform="translate(25.463798, 35.644553) rotate(-45.000000) translate(-25.463798, -35.644553) " points="22.8251705 33.005925 28.1024262 33.005925 28.1024262 38.2831808 22.8251705 38.2831808"></polygon>
                <polygon id="Path" points="118.553015 11.0567152 118.553015 16.9843659 116.577131 18.9602495 114.601247 16.9843659 114.601247 11.0567152 110.64948 11.0567152 108.673597 13.0325988 108.673597 18.9602495 110.64948 20.9361331 108.673597 22.9120166 108.673597 28.8396674 110.64948 30.8155509 114.601247 30.8155509 114.601247 24.8879002 116.577131 22.9120166 118.553015 24.8879002 118.553015 30.8155509 122.504782 30.8155509 124.480665 28.8396674 124.480665 22.9120166 122.504782 20.9361331 124.480665 18.9602495 124.480665 13.0325988 122.504782 11.0567152"></polygon>
                <polygon id="Path" points="47.4212058 11.0567152 47.4212058 16.9843659 41.4935551 11.0567152 37.5417879 11.0567152 35.5659044 13.0325988 35.5659044 28.8396674 37.5417879 30.8155509 41.4935551 30.8155509 41.4935551 18.9602495 47.4212058 24.8879002 47.4212058 30.8155509 51.372973 30.8155509 53.3488565 28.8396674 53.3488565 13.0325988 51.372973 11.0567152"></polygon>
                <path d="M31.6141372,11.1006237 L19.7588358,11.1006237 L17.7829522,13.0765073 L17.7829522,28.8835759 L19.7588358,30.8594595 L23.7106029,30.8594595 L23.7106029,22.9559252 L27.6623701,22.9559252 L27.6623701,30.8594595 L31.6141372,30.8594595 L33.5900208,28.8835759 L33.5900208,13.0765073 L31.6141372,11.1006237 Z M25.6864865,19.7286486 L23.1617464,17.2039085 L25.6864865,14.6791684 L28.2112266,17.2039085 L25.6864865,19.7286486 Z" id="Shape"></path>
            </g>
        </g>
    </g>
</svg>